<svg width="180" height="130" viewBox="0 0 180 130" fill="none" xmlns="http://www.w3.org/2000/svg">
<rect x="50" y="48.5713" width="31.4286" height="31.4286" rx="5.71429" fill="#1D92ED"/>
<path d="M92.8965 25.6749C92.8965 31.0624 92.8965 33.7562 94.5702 35.4298C96.2438 37.1035 98.9376 37.1035 104.325 37.1035H118.571C123.959 37.1035 126.653 37.1035 128.326 38.7772C130 40.4509 130 43.1446 130 48.5321V68.5714C130 73.9589 130 76.6526 128.326 78.3263C126.653 80 123.959 80 118.571 80H98.5321C93.1446 80 90.4509 80 88.7772 78.3263C87.1035 76.6526 87.1035 73.9589 87.1035 68.5714V54.3251C87.1035 48.9376 87.1035 46.2438 85.4298 44.5702C83.7562 42.8965 81.0624 42.8965 75.6749 42.8965H61.4286C56.0411 42.8965 53.3474 42.8965 51.6737 41.2228C50 39.5491 50 36.8554 50 31.4679V11.4286C50 6.04109 50 3.34735 51.6737 1.67368C53.3474 0 56.0411 0 61.4286 0H81.4679C86.8554 0 89.5491 0 91.2228 1.67368C92.8965 3.34735 92.8965 6.04109 92.8965 11.4286V25.6749Z" fill="#010339"/>
<path d="M53.2955 123V99.7273H57.5114V119.466H67.7614V123H53.2955ZM78.8523 123.341C77.1477 123.341 75.6705 122.966 74.4205 122.216C73.1705 121.466 72.2008 120.417 71.5114 119.068C70.8295 117.72 70.4886 116.144 70.4886 114.341C70.4886 112.538 70.8295 110.958 71.5114 109.602C72.2008 108.246 73.1705 107.193 74.4205 106.443C75.6705 105.693 77.1477 105.318 78.8523 105.318C80.5568 105.318 82.0341 105.693 83.2841 106.443C84.5341 107.193 85.5 108.246 86.1818 109.602C86.8712 110.958 87.2159 112.538 87.2159 114.341C87.2159 116.144 86.8712 117.72 86.1818 119.068C85.5 120.417 84.5341 121.466 83.2841 122.216C82.0341 122.966 80.5568 123.341 78.8523 123.341ZM78.875 120.045C79.7992 120.045 80.572 119.792 81.1932 119.284C81.8144 118.769 82.2765 118.08 82.5795 117.216C82.8902 116.352 83.0455 115.39 83.0455 114.33C83.0455 113.261 82.8902 112.295 82.5795 111.432C82.2765 110.561 81.8144 109.867 81.1932 109.352C80.572 108.837 79.7992 108.58 78.875 108.58C77.928 108.58 77.1402 108.837 76.5114 109.352C75.8902 109.867 75.4242 110.561 75.1136 111.432C74.8106 112.295 74.6591 113.261 74.6591 114.33C74.6591 115.39 74.8106 116.352 75.1136 117.216C75.4242 118.08 75.8902 118.769 76.5114 119.284C77.1402 119.792 77.928 120.045 78.875 120.045ZM98.2983 129.909C96.821 129.909 95.5521 129.708 94.4915 129.307C93.4309 128.913 92.5786 128.383 91.9347 127.716C91.2907 127.049 90.8438 126.311 90.5938 125.5L94.2983 124.602C94.465 124.943 94.7074 125.28 95.0256 125.614C95.3438 125.955 95.7718 126.235 96.3097 126.455C96.8551 126.682 97.5407 126.795 98.3665 126.795C99.5331 126.795 100.499 126.511 101.264 125.943C102.029 125.383 102.412 124.458 102.412 123.17V119.864H102.207C101.995 120.288 101.685 120.723 101.276 121.17C100.874 121.617 100.34 121.992 99.6733 122.295C99.0142 122.598 98.1847 122.75 97.1847 122.75C95.8438 122.75 94.6278 122.436 93.5369 121.807C92.4536 121.17 91.59 120.223 90.946 118.966C90.3097 117.701 89.9915 116.117 89.9915 114.216C89.9915 112.299 90.3097 110.682 90.946 109.364C91.59 108.038 92.4574 107.034 93.5483 106.352C94.6392 105.663 95.8551 105.318 97.196 105.318C98.2188 105.318 99.0597 105.492 99.7188 105.841C100.385 106.182 100.916 106.595 101.31 107.08C101.704 107.557 102.003 108.008 102.207 108.432H102.435V105.545H106.491V123.284C106.491 124.777 106.135 126.011 105.423 126.989C104.711 127.966 103.738 128.697 102.503 129.182C101.268 129.667 99.8665 129.909 98.2983 129.909ZM98.3324 119.523C99.2036 119.523 99.946 119.311 100.56 118.886C101.173 118.462 101.639 117.852 101.957 117.057C102.276 116.261 102.435 115.307 102.435 114.193C102.435 113.095 102.276 112.133 101.957 111.307C101.647 110.481 101.185 109.841 100.571 109.386C99.965 108.924 99.2188 108.693 98.3324 108.693C97.4157 108.693 96.6506 108.932 96.0369 109.409C95.4233 109.886 94.9612 110.542 94.6506 111.375C94.34 112.201 94.1847 113.14 94.1847 114.193C94.1847 115.261 94.34 116.197 94.6506 117C94.9688 117.795 95.4347 118.417 96.0483 118.864C96.6695 119.303 97.4309 119.523 98.3324 119.523ZM118.321 123.341C116.616 123.341 115.139 122.966 113.889 122.216C112.639 121.466 111.67 120.417 110.98 119.068C110.298 117.72 109.957 116.144 109.957 114.341C109.957 112.538 110.298 110.958 110.98 109.602C111.67 108.246 112.639 107.193 113.889 106.443C115.139 105.693 116.616 105.318 118.321 105.318C120.026 105.318 121.503 105.693 122.753 106.443C124.003 107.193 124.969 108.246 125.651 109.602C126.34 110.958 126.685 112.538 126.685 114.341C126.685 116.144 126.34 117.72 125.651 119.068C124.969 120.417 124.003 121.466 122.753 122.216C121.503 122.966 120.026 123.341 118.321 123.341ZM118.344 120.045C119.268 120.045 120.041 119.792 120.662 119.284C121.283 118.769 121.745 118.08 122.048 117.216C122.359 116.352 122.514 115.39 122.514 114.33C122.514 113.261 122.359 112.295 122.048 111.432C121.745 110.561 121.283 109.867 120.662 109.352C120.041 108.837 119.268 108.58 118.344 108.58C117.397 108.58 116.609 108.837 115.98 109.352C115.359 109.867 114.893 110.561 114.582 111.432C114.279 112.295 114.128 113.261 114.128 114.33C114.128 115.39 114.279 116.352 114.582 117.216C114.893 118.08 115.359 118.769 115.98 119.284C116.609 119.792 117.397 120.045 118.344 120.045Z" fill="#010339"/>
</svg>
