<svg width="80" height="50" viewBox="0 0 80 50" fill="none" xmlns="http://www.w3.org/2000/svg">
<path d="M37.2602 0.0249072L36.9475 0.0865717C36.9264 0.0919375 36.9079 0.104686 36.8954 0.122505C36.8829 0.140324 36.8772 0.162035 36.8793 0.183699C36.8815 0.205363 36.8913 0.225546 36.907 0.240588C36.9228 0.255629 36.9434 0.264535 36.9651 0.265687H37.4511C37.4775 0.265594 37.5029 0.275396 37.5223 0.293112C37.5416 0.310828 37.5534 0.335133 37.5553 0.361116C37.8005 3.22696 37.8739 5.22218 37.9913 8.31852C38.051 9.87281 38.2723 11.6899 38.655 13.7698L34.7335 15.1557L26.5764 18.1581C27.127 15.8942 27.5895 13.529 27.6658 11.2079C27.6664 11.1955 27.6644 11.1832 27.6601 11.1717C27.6557 11.1601 27.649 11.1496 27.6403 11.1407C27.6317 11.1317 27.6213 11.1246 27.6097 11.1198C27.5982 11.1149 27.5858 11.1124 27.5733 11.1124H8.94092C8.93028 11.1126 8.91977 11.1102 8.91019 11.1056C8.9006 11.101 8.89222 11.0942 8.88568 11.0859C8.87914 11.0775 8.87463 11.0677 8.8725 11.0573C8.87036 11.0469 8.87067 11.0361 8.87338 11.0258L11.7436 0.0924411C11.7485 0.0727152 11.76 0.0552045 11.7763 0.0426991C11.7925 0.0301936 11.8125 0.0234127 11.8332 0.0234376L37.2602 0.0249072Z" fill="#0158B3"/>
<path d="M39.5623 0.051084C40.2856 0.270329 41.0583 0.355971 41.8805 0.308011C41.8901 0.307415 41.8998 0.30873 41.9089 0.311878C41.9181 0.315026 41.9265 0.319948 41.9337 0.326359C41.941 0.33277 41.9469 0.340543 41.9511 0.349236C41.9553 0.357929 41.9578 0.367369 41.9583 0.377015C42.1829 4.38508 42.1756 8.38288 42.7673 12.3586L38.655 13.7695C38.2723 11.6897 38.0511 9.87256 37.9914 8.31828C37.8739 5.22193 37.8005 3.22671 37.5553 0.360867C37.5535 0.334884 37.5417 0.310579 37.5223 0.292863C37.503 0.275147 37.4775 0.265345 37.4511 0.265438H36.9651C36.9434 0.264286 36.9228 0.25538 36.907 0.240339C36.8913 0.225297 36.8815 0.205114 36.8793 0.18345C36.8772 0.161786 36.8829 0.140075 36.8954 0.122256C36.9079 0.104437 36.9264 0.0916886 36.9475 0.0863228L37.2602 0.0246582L39.5623 0.051084Z" fill="#266BBE"/>
<path d="M45.9857 0.0123291L45.8227 0.0299507C45.8198 0.0552808 45.8223 0.0809311 45.83 0.105245C45.8376 0.129559 45.8503 0.15199 45.8672 0.17109C45.8841 0.190189 45.9048 0.20553 45.928 0.216118C45.9512 0.226706 45.9763 0.232305 46.0018 0.232553L49.5342 0.283939C49.5487 0.284131 49.563 0.287171 49.5763 0.292882C49.5895 0.298593 49.6016 0.306863 49.6117 0.317224C49.6217 0.327586 49.6297 0.339836 49.6351 0.35327C49.6404 0.366703 49.6431 0.38106 49.6429 0.39552C49.5768 3.6284 49.5871 6.67042 50.1758 9.9635L42.7675 12.3566C42.1758 8.38083 42.1832 4.38303 41.9585 0.374964C41.958 0.365318 41.9555 0.355878 41.9513 0.347185C41.9471 0.338492 41.9412 0.330719 41.9339 0.324308C41.9267 0.317897 41.9183 0.312975 41.9092 0.309827C41.9 0.306679 41.8904 0.305364 41.8807 0.305961C41.0586 0.35392 40.2858 0.268278 39.5625 0.049033L45.9857 0.0123291Z" fill="#6A91D1"/>
<path d="M51.0256 0.0090332C51.1137 0.167594 51.2815 0.249324 51.5292 0.254217C52.3553 0.269878 53.1848 0.294838 54.0177 0.329095C54.0267 0.329357 54.0355 0.331578 54.0436 0.335614C54.0516 0.33965 54.0588 0.345407 54.0645 0.352496C54.0702 0.359585 54.0743 0.367845 54.0766 0.376722C54.0789 0.385599 54.0794 0.394887 54.0779 0.403968C53.6081 3.18759 53.5601 5.99813 53.934 8.83559L51.0109 9.71649L50.1785 9.96461C49.5897 6.67153 49.5795 3.62951 49.6455 0.396629C49.6457 0.382168 49.6431 0.367812 49.6377 0.354378C49.6324 0.340944 49.6244 0.328694 49.6143 0.318333C49.6042 0.307971 49.5922 0.299702 49.5789 0.29399C49.5656 0.288279 49.5513 0.285239 49.5369 0.285047L46.0045 0.233661C45.979 0.233413 45.9539 0.227815 45.9307 0.217227C45.9075 0.206639 45.8868 0.191298 45.8699 0.172198C45.853 0.153098 45.8403 0.130667 45.8326 0.106353C45.825 0.0820395 45.8225 0.0563892 45.8254 0.0310591L45.9883 0.0134375L51.0256 0.0090332Z" fill="#8BA6DA"/>
<path d="M54.202 0.0105028L54.1741 0.216044C54.173 0.22456 54.1738 0.233202 54.1763 0.24139C54.1787 0.249578 54.1829 0.257123 54.1885 0.263519C54.194 0.269914 54.2009 0.275014 54.2085 0.278475C54.2162 0.281935 54.2245 0.283672 54.2328 0.283578L64.0636 0.277708C63.585 2.21568 63.2801 4.18545 63.1489 6.18704C60.0443 7.00236 56.9719 7.88521 53.9319 8.83559C53.558 5.99813 53.6059 3.18759 54.0757 0.403968C54.0772 0.394887 54.0768 0.385599 54.0745 0.376722C54.0721 0.367845 54.068 0.359585 54.0623 0.352496C54.0566 0.345407 54.0495 0.33965 54.0414 0.335614C54.0333 0.331578 54.0245 0.329357 54.0155 0.329095C53.1826 0.294838 52.3531 0.269878 51.527 0.254217C51.2794 0.249324 51.1115 0.167594 51.0234 0.0090332L54.202 0.0105028Z" fill="#A3BFE6"/>
<path d="M66.4295 0.0090332C66.4804 0.0452477 66.5513 0.0560144 66.6424 0.0413328C66.654 0.0396558 66.6658 0.0404853 66.6771 0.0437657C66.6884 0.0470462 66.6988 0.0527026 66.7077 0.0603524C66.7166 0.0680022 66.7238 0.0774657 66.7287 0.0881133C66.7336 0.098761 66.7362 0.110343 66.7363 0.12208V0.173466C66.7363 0.189569 66.7302 0.205036 66.7192 0.216559C66.7083 0.228082 66.6933 0.234747 66.6776 0.235131L64.0657 0.276239L54.235 0.282108C54.2266 0.282202 54.2183 0.280465 54.2107 0.277005C54.203 0.273545 54.1962 0.268445 54.1906 0.262049C54.185 0.255654 54.1809 0.248108 54.1784 0.23992C54.1759 0.231733 54.1752 0.22309 54.1762 0.214574L54.2041 0.0090332H66.4295Z" fill="#C4D2EC"/>
<path d="M68.2385 0.0078125L68.588 0.0738814C68.593 0.0751098 68.5975 0.077878 68.6009 0.0818073C68.6043 0.0857366 68.6064 0.0906289 68.6069 0.0957998C68.6074 0.100971 68.6063 0.106165 68.6036 0.110657C68.601 0.115149 68.5971 0.118714 68.5924 0.120859C67.9478 0.367509 67.6072 0.631778 67.5338 1.39669C67.4438 2.33729 67.2901 3.60724 67.0728 5.20656L63.1484 6.18875C63.2796 4.18717 63.5845 2.21739 64.0631 0.279422L66.675 0.238314C66.6907 0.237931 66.7056 0.231265 66.7166 0.219743C66.7276 0.20822 66.7337 0.192752 66.7337 0.17665V0.125263C66.7336 0.113527 66.731 0.101945 66.726 0.0912969C66.7211 0.0806492 66.714 0.0711858 66.7051 0.063536C66.6962 0.0558862 66.6857 0.0502297 66.6744 0.0469493C66.6632 0.0436689 66.6513 0.0428394 66.6397 0.0445164C66.5487 0.059198 66.4777 0.0484313 66.4268 0.0122168L68.2385 0.0078125Z" fill="#8BA6DA"/>
<path d="M71.9798 4.28008C71.9201 4.20178 71.8227 4.17584 71.6877 4.20227C69.8525 4.5742 68.3134 4.90796 67.0703 5.20355C67.2876 3.60424 67.4413 2.33428 67.5313 1.39368C67.6047 0.628771 67.9453 0.364503 68.5899 0.117852C68.5946 0.115707 68.5985 0.112142 68.6011 0.10765C68.6037 0.103158 68.6049 0.0979638 68.6044 0.092793C68.6039 0.0876221 68.6018 0.0827298 68.5984 0.0788005C68.595 0.0748712 68.5905 0.072103 68.5855 0.0708746L68.236 0.00480569C70.5469 -0.00106694 72.8637 -0.00155776 75.1863 0.0033361C75.2333 0.00431487 75.2602 0.0282978 75.267 0.0752789C75.269 0.0958331 75.2587 0.12128 75.2362 0.151621C74.1811 1.54539 73.0956 2.92154 71.9798 4.28008Z" fill="#6A91D1"/>
<path d="M71.9864 4.28301C71.1838 5.15509 70.4179 5.89162 69.6887 6.49258C68.0253 7.86384 66.0653 8.92238 63.8851 9.6271C59.6759 10.9895 55.4887 12.3461 51.4395 13.7174C51.1498 13.8162 50.8523 13.9136 50.5469 14.0095C50.8053 12.5708 50.9604 11.1403 51.0123 9.71812L53.9354 8.83723C56.9754 7.88684 60.0478 7.00399 63.1525 6.18867L67.0768 5.20648C68.3199 4.91089 69.859 4.57713 71.6942 4.20519C71.8293 4.17877 71.9267 4.2047 71.9864 4.28301Z" fill="#F4F5FB"/>
<path d="M51.0135 9.71667C50.9616 11.1388 50.8065 12.5693 50.5481 14.0081L33.3398 19.9497C33.8302 19.5543 34.1948 19.2103 34.4336 18.9176C35.2822 17.8738 35.0341 16.3806 34.739 15.1547L38.6604 13.7688L42.7728 12.3579L50.1811 9.96479L51.0135 9.71667Z" fill="#C4D2EC"/>
<path d="M48.9415 38.0791C48.9123 38.0786 48.8836 38.0882 48.8602 38.1063C48.8367 38.1244 48.8199 38.1499 48.8123 38.1789L45.9465 49.6364C45.9393 49.6649 45.9227 49.6902 45.8993 49.7083C45.8759 49.7264 45.847 49.7362 45.8173 49.7362H34.1205C34.114 49.7362 34.1077 49.7347 34.1019 49.7319C34.0961 49.729 34.0911 49.7249 34.0871 49.7198C34.0831 49.7147 34.0804 49.7088 34.079 49.7025C34.0777 49.6962 34.0778 49.6896 34.0794 49.6834L39.0095 29.9763C39.019 29.9378 39.0412 29.9036 39.0726 29.8791C39.104 29.8547 39.1427 29.8413 39.1827 29.8412L58.6916 29.8442C58.8741 29.8442 59.0561 29.8629 59.2348 29.9C59.2818 29.9107 59.5318 29.9969 59.985 30.1583C60.1309 30.2102 60.3868 30.2739 60.7529 30.3492C61.8736 30.5802 63.191 30.5993 64.7051 30.4065C66.2467 30.2107 67.454 29.5158 68.3271 28.3217C69.0524 27.3302 69.5109 26.3201 69.7027 25.2914C69.9523 23.951 69.7512 22.5357 68.4357 21.9014C67.179 21.2966 65.6947 21.3039 64.2368 21.3039C51.4276 21.3098 43.7604 21.3098 41.2352 21.3039C41.2253 21.304 41.2155 21.3019 41.2065 21.2975C41.1976 21.2932 41.1898 21.2868 41.1837 21.2788C41.1776 21.2709 41.1734 21.2616 41.1713 21.2517C41.1693 21.2418 41.1696 21.2315 41.172 21.2217L41.8298 18.5922C41.8469 18.5241 41.8806 18.4612 41.928 18.4092C41.9754 18.3572 42.035 18.3177 42.1014 18.2942C47.5365 16.3689 53.1801 14.45 59.0322 12.5375C59.411 12.4142 59.753 12.3232 60.1539 12.3261C61.6807 12.3379 64.3743 12.3423 68.2346 12.3393C70.2137 12.3374 72.1086 12.4881 73.9193 12.7915C75.2123 13.0088 76.3765 13.4346 77.412 14.0688C79.3603 15.2639 79.9754 17.9873 79.9989 20.0897C80.0283 22.7804 79.5746 25.5268 78.638 28.329C78.0752 30.0096 77.3421 31.5379 76.4387 32.9141C75.0224 35.0733 73.0506 36.49 70.5235 37.1644C67.9468 37.8515 65.3702 38.0453 62.6938 38.0688C60.1137 38.0913 55.5297 38.0947 48.9415 38.0791Z" fill="#F42C31"/>
<path d="M34.7301 15.1528C35.0252 16.3787 35.2734 17.8719 34.4248 18.9157C34.1859 19.2084 33.8213 19.5524 33.331 19.9478C24.453 23.0809 15.4811 26.393 6.1231 27.7804C4.24386 28.0584 2.2134 28.3085 0.031717 28.5307C0.0252922 28.5324 0.0184346 28.5316 0.0126526 28.5283C0.00687066 28.525 0.00263693 28.5195 0.000884723 28.5131C-0.000867484 28.5066 4.65766e-06 28.4998 0.00330865 28.494C0.00661265 28.4882 0.0120771 28.484 0.0185019 28.4822C3.50782 26.97 7.11949 25.5033 10.8535 24.0822C12.3559 23.5096 15.8051 22.2049 21.2011 20.1681C22.9952 19.4898 24.7858 18.8188 26.5731 18.1552L34.7301 15.1528Z" fill="#A3BFE6"/>
<path d="M17.6743 49.6555C20.6591 38.8308 22.255 32.8935 24.7274 24.7321C24.8198 24.4267 24.88 24.3445 25.1942 24.2343C27.5276 23.4171 31.4476 22.0419 36.9542 20.1088C36.9668 20.1044 36.9803 20.1034 36.9934 20.1061C37.0065 20.1088 37.0186 20.115 37.0284 20.1241C37.0383 20.1331 37.0454 20.1447 37.0492 20.1576C37.0529 20.1704 37.053 20.184 37.0496 20.1969L29.3315 49.5953C29.321 49.6361 29.2972 49.6723 29.2637 49.698C29.2302 49.7238 29.1889 49.7378 29.1465 49.7377H17.736C17.726 49.7376 17.7162 49.7353 17.7074 49.7308C17.6985 49.7263 17.6908 49.7198 17.6848 49.7119C17.6788 49.7039 17.6748 49.6947 17.673 49.6849C17.6711 49.6751 17.6716 49.6651 17.6743 49.6555Z" fill="#0158B3"/>
</svg>
