<svg width="48" height="48" viewBox="0 0 48 48" fill="none" xmlns="http://www.w3.org/2000/svg">
<path d="M46 43.3265C45.7805 43.5994 45.586 43.8766 45.1883 43.8473H2.82651C2.14736 43.8421 1.84093 43.1707 2.08108 42.5759L14.5553 21.7635C14.8635 21.3727 15.4867 21.3391 15.8491 21.6748L18.1215 25.2504L23.1002 16.9828L23.1441 4.97592C23.1966 4.586 23.5719 4.23566 23.9583 4.24255C27.311 4.48012 31.0571 3.94559 34.3633 4.24427C35.0321 4.30453 35.3532 4.88124 35.0958 5.50357L32.1744 8.52142C32.9051 9.53196 34.0405 10.298 34.8333 11.2621C35.1079 11.5961 35.2774 11.7975 35.1535 12.2761C35.1147 12.4259 34.7567 12.8562 34.6164 12.8562H24.8656V16.9449L29.8916 25.2513L32.164 21.6757C32.5264 21.34 33.1496 21.3735 33.4578 21.7643L45.9991 42.6388V43.3274L46 43.3265ZM32.1683 5.96925H24.8664V11.1339H32.1683C31.6579 10.4332 30.7945 9.86594 30.2807 9.19454C29.9028 8.70132 29.9028 8.40178 30.2807 7.90856C30.7945 7.23716 31.6579 6.66991 32.1683 5.96925ZM29.846 28.7753L24.0496 18.9668L18.1611 28.7322C18.7206 28.888 20.0573 29.8667 20.5342 29.8977C20.6151 29.9029 20.6702 29.8814 20.7434 29.8616C21.5714 29.6352 23.021 28.4731 23.7982 28.3544C23.9824 28.326 24.1753 28.3337 24.3534 28.3905L27.4066 29.8986L29.8451 28.7761L29.846 28.7753ZM9.40879 33.9373C10.1998 34.1353 11.1691 34.9065 11.8921 35.1105C12.0126 35.1441 12.1211 35.1888 12.239 35.1097L17.1023 26.9289L15.2878 24.0471L9.40879 33.9373ZM38.6086 33.9399L32.727 24.0462C32.4954 24.4542 30.8737 26.7241 30.9211 26.978L35.7784 35.2345L38.6086 33.9399ZM10.0897 42.1215H37.9243L30.8333 30.2403C30.4322 30.2463 28.4627 31.5409 27.849 31.7251C27.5228 31.8232 27.3644 31.8232 27.0373 31.7251C26.1214 31.4497 25.0093 30.5355 24.0436 30.2437C23.9428 30.2248 23.8628 30.2799 23.7741 30.3092C22.9142 30.5915 21.7384 31.5357 20.9172 31.7518C20.7296 31.8009 20.554 31.8172 20.3621 31.788L17.1359 30.2437L10.0905 42.1223L10.0897 42.1215ZM4.41979 42.1215H7.98509L11.1957 36.8114L11.0666 36.6237L8.42236 35.4006L4.41979 42.1215ZM40.0297 42.1215H43.595L39.5924 35.4006L36.9482 36.6237L36.8191 36.8114L40.0297 42.1215Z" fill="#166EB2"/>
<path d="M21.5813 38.6993L25.5072 38.6821C26.3895 38.8939 26.3594 40.2393 25.5072 40.3951C25.0441 40.4794 22.1124 40.4794 21.6501 40.3951C20.8204 40.2436 20.7713 38.9593 21.5813 38.6993Z" fill="#166EB2"/>
</svg>
