<svg width="781" height="601" viewBox="0 0 781 601" fill="none" xmlns="http://www.w3.org/2000/svg">
<g opacity="0.2">
<path d="M174.701 150.394C164.899 145.784 148.689 153.28 143.519 164.247C133.652 185.183 165.564 215.504 177.168 212.249C190.137 208.612 192.696 158.857 174.699 150.394H174.701Z" stroke="#0F31AC" stroke-width="3.54482" stroke-miterlimit="10" stroke-linecap="round" stroke-dasharray="8.86 8.86 8.86 8.86 8.86 8.86"/>
<path d="M125.671 197.813C122.173 195.789 85.1187 174.355 64.1476 191.318C49.4224 203.229 49.2824 228.692 60.3475 243C82.2634 271.341 150.221 258.635 157.272 238.355C162.02 224.698 139.727 205.943 125.671 197.813Z" stroke="#0F31AC" stroke-width="3.54482" stroke-miterlimit="10" stroke-linecap="round" stroke-dasharray="8.86 8.86 8.86 8.86 8.86 8.86"/>
<path d="M173.352 547.779C263.548 525.392 366.034 502.6 525.175 506.482C614.177 508.653 634.345 481.034 701.798 446.693C761.919 416.087 791.448 355.226 773.313 320.733C755.004 285.911 699.236 299.775 653.565 247.939C632.766 224.33 636.426 207.783 624.418 181.603C586.391 98.7053 443.866 33.9113 373.585 68.2021C280.733 113.503 360.112 309.243 256.322 362.713C190.67 396.538 141.048 331.605 76.2237 381.173C44.1041 405.733 4.82041 440.185 1.7825 477.592C1.7825 477.592 -2.47129 569.048 173.352 547.779Z" stroke="#0F31AC" stroke-width="3.54482" stroke-miterlimit="10" stroke-linecap="round" stroke-dasharray="8.86 8.86 8.86 8.86 8.86 8.86"/>
<path d="M760.709 593.289C760.709 596.834 594.822 599.708 390.191 599.708C274.731 599.708 171.605 598.794 103.652 597.358C88.0001 597.029 74.2178 596.671 62.5784 596.289C54.9127 596.04 48.1775 595.779 42.4509 595.508C27.7186 594.818 19.6719 594.07 19.6719 593.289C19.6719 592.294 32.7328 591.352 56.0417 590.513C65.5862 590.168 76.8498 589.84 89.6395 589.535C111.369 589.014 137.505 588.551 167.101 588.165C208.816 587.617 257.407 587.22 310.223 587.018C310.248 587.018 310.274 587.018 310.301 587.018C336.029 586.921 362.763 586.869 390.191 586.869C417.619 586.869 444.453 586.921 470.229 587.02C521.968 587.217 569.649 587.601 610.785 588.129C630.303 588.381 648.347 588.665 664.652 588.977C724.338 590.116 760.709 591.63 760.709 593.289Z" fill="#040C2B"/>
<path d="M671.939 446.063C671.939 446.063 655.585 467.746 639.228 497.496C624.846 523.662 613.823 558.695 610.992 588.41C569.816 587.881 522.089 587.496 470.302 587.299C445.012 587.044 418.1 586.905 390.187 586.905C362.273 586.905 335.468 587.042 310.221 587.297C310.194 587.297 310.167 587.297 310.143 587.297C257.276 587.5 208.639 587.897 166.884 588.445C105.762 513.065 -12.6449 384.381 98.4388 331.131C98.4388 331.131 106.658 328.628 118.981 323.25C154.8 307.617 225.321 267.709 229.689 194.403C230.077 187.886 229.942 181.106 229.215 174.057C229.215 174.057 228.511 170.325 227.782 163.952C226.996 157.084 226.178 147.149 226.178 135.517C226.178 83.0812 242.778 -3.8357 353.603 0.131194C420.715 2.53688 482.523 36.6884 519.891 91.3521C556.544 144.967 615.15 210.934 662.877 173.273C673.894 164.576 688.461 161.355 702.062 165.178C736.415 174.827 775.442 224.781 671.939 446.063Z" fill="#5074FB"/>
</g>
<path d="M522.06 67.0566H486.651C482.719 67.0566 479.531 70.2443 479.531 74.1764V105.078C479.531 109.011 482.719 112.198 486.651 112.198H522.06C525.992 112.198 529.18 109.011 529.18 105.078V74.1764C529.18 70.2443 525.992 67.0566 522.06 67.0566Z" fill="#DEE4FC"/>
<path d="M519.61 96.9626L519.484 99.2721V99.3182L519.493 99.3217L520.552 99.6833C520.363 100.376 520.074 101.025 519.703 101.612C519.696 101.622 519.691 101.633 519.684 101.644L519.276 101.443L518.605 101.114L517.217 102.966L517.71 103.664C517.132 104.049 516.494 104.341 515.815 104.522L515.593 103.435L513.365 103.391L513.029 104.623C512.281 104.481 511.579 104.205 510.944 103.82L511.591 102.73L510.072 101.011L508.833 101.759L508.823 101.766C508.793 101.722 508.764 101.675 508.736 101.631C508.256 100.865 507.917 99.9917 507.754 99.0558L508.844 98.813L508.968 96.4557L507.843 96.1048C508.041 95.2593 508.385 94.4759 508.842 93.7847L509.998 94.4759L511.557 92.7833L510.939 91.7429C511.737 91.2519 512.637 90.9311 513.596 90.8301L513.842 92.2303L516.068 92.3419L516.419 91.181C516.619 91.0977 517.835 91.8616 518.426 92.3756L517.71 93.4249L519.2 95.2381L520.159 94.7081C520.448 95.3391 520.648 96.0232 520.746 96.7428L519.606 96.9644L519.61 96.9626ZM514.33 93.3451C513.5 93.3292 512.701 93.5667 512.015 94.0275C511.779 94.1852 511.558 94.3696 511.352 94.5787C510.545 95.3976 510.086 96.4982 510.062 97.6787C510.035 98.8591 510.444 99.9775 511.214 100.828C511.983 101.679 513.022 102.159 514.135 102.182C515.249 102.205 516.308 101.766 517.114 100.947C517.92 100.128 518.38 99.0275 518.404 97.847C518.431 96.6666 518.021 95.5482 517.252 94.6975C517.174 94.6106 517.093 94.5273 517.009 94.4493C516.27 93.7546 515.333 93.3646 514.331 93.3434L514.33 93.3451Z" fill="white"/>
<path d="M517.688 81.8213L517.548 84.5314L517.545 84.5845L517.557 84.5881L518.714 85.0117C518.505 85.8252 518.188 86.5874 517.784 87.2751C517.777 87.2875 517.77 87.2999 517.763 87.3123L517.318 87.0783L516.584 86.6937L515.063 88.8702L515.6 89.6873C514.968 90.1393 514.269 90.4831 513.528 90.6958L513.289 89.4214L510.854 89.3718L510.483 90.8163C509.666 90.6497 508.899 90.3271 508.206 89.877L508.915 88.5973L507.258 86.582L505.902 87.4612L505.889 87.4682C505.857 87.4151 505.825 87.3637 505.795 87.3087C505.272 86.4101 504.902 85.3874 504.727 84.2885L505.919 84.0014L506.059 81.2365L504.829 80.8253C505.047 79.8327 505.425 78.9128 505.926 78.1011L507.188 78.9093L508.897 76.9224L508.224 75.703C509.096 75.1252 510.081 74.7477 511.132 74.6289L511.398 76.2719L513.831 76.3978L514.216 75.0348C514.436 74.9373 515.763 75.8306 516.407 76.435L515.622 77.6668L517.249 79.7919L518.298 79.1698C518.613 79.9089 518.831 80.7118 518.936 81.5555L517.69 81.8178L517.688 81.8213ZM511.923 77.5853C511.015 77.5676 510.141 77.8476 509.39 78.39C509.133 78.5761 508.888 78.7923 508.663 79.0369C507.78 79.9993 507.277 81.2914 507.245 82.6757C507.215 84.0599 507.66 85.3715 508.5 86.3676C509.34 87.3637 510.474 87.9273 511.692 87.9521C512.912 87.9769 514.069 87.4612 514.952 86.4987C515.834 85.5363 516.338 84.2442 516.37 82.86C516.4 81.4757 515.955 80.1642 515.115 79.1681C515.03 79.067 514.941 78.9695 514.849 78.8774C514.042 78.0638 513.016 77.6066 511.923 77.5853Z" fill="white"/>
<path d="M505.788 91.7233L505.595 95.456L505.591 95.5304L505.609 95.5358L507.201 96.1189C506.914 97.239 506.478 98.2883 505.921 99.2348C505.911 99.2525 505.902 99.2685 505.891 99.2862L505.278 98.9654L504.269 98.4354L502.18 101.433L502.919 102.558C502.048 103.18 501.09 103.653 500.069 103.948L499.739 102.191L496.389 102.124L495.88 104.114C494.757 103.886 493.702 103.441 492.749 102.82L493.723 101.059L491.444 98.283L489.58 99.4936L489.564 99.5042C489.519 99.4315 489.477 99.3589 489.434 99.2862C488.715 98.049 488.206 96.64 487.965 95.1263L489.604 94.7329L489.796 90.9257L488.105 90.3603C488.406 88.9938 488.924 87.7283 489.615 86.6099L491.352 87.723L493.702 84.9864L492.775 83.3061C493.975 82.5103 495.331 81.991 496.774 81.8262L497.141 84.0878L500.487 84.2615L501.017 82.3845C501.32 82.2498 503.144 83.4816 504.03 84.3111L502.951 86.0073L505.187 88.9335L506.63 88.0757C507.063 89.0948 507.364 90.199 507.507 91.3617L505.794 91.7233H505.788ZM497.86 85.8885C496.612 85.8637 495.411 86.2501 494.377 86.9981C494.023 87.2533 493.688 87.551 493.378 87.8896C492.164 89.2136 491.471 90.9931 491.43 92.9002C491.387 94.8073 492.001 96.6134 493.156 97.9852C494.312 99.3571 495.87 100.132 497.545 100.165C499.22 100.199 500.811 99.4882 502.027 98.1642C503.241 96.8403 503.934 95.0608 503.975 93.1536C504.018 91.2465 503.404 89.4404 502.249 88.0686C502.132 87.9286 502.009 87.7956 501.884 87.668C500.776 86.5461 499.365 85.9187 497.86 85.8885Z" fill="white"/>
<path d="M743.08 272.302H707.671C703.738 272.302 700.551 275.489 700.551 279.422V310.324C700.551 314.256 703.738 317.443 707.671 317.443H743.08C747.012 317.443 750.2 314.256 750.2 310.324V279.422C750.2 275.489 747.012 272.302 743.08 272.302Z" fill="#DEE4FC"/>
<path d="M741.228 285.085V304.661C741.228 305.06 741.101 305.427 740.884 305.728C740.688 305.994 740.423 306.207 740.117 306.338C739.901 306.43 739.66 306.481 739.41 306.481H711.34C711.088 306.481 710.849 306.43 710.633 306.338C710.324 306.209 710.06 305.994 709.865 305.728C709.651 305.429 709.521 305.06 709.521 304.661V285.085C709.521 284.782 709.598 284.493 709.729 284.241C709.878 283.956 710.101 283.717 710.37 283.546C710.652 283.367 710.984 283.265 711.34 283.265H739.41C739.766 283.265 740.099 283.367 740.379 283.546C740.649 283.717 740.872 283.956 741.021 284.241C741.154 284.493 741.228 284.782 741.228 285.085Z" fill="white"/>
<path d="M741.02 284.241L727.543 295.969L726.813 296.605L726.513 296.866C726.189 297.149 725.781 297.291 725.373 297.291C724.966 297.291 724.558 297.149 724.234 296.866L723.934 296.605L723.204 295.969L709.727 284.241C709.875 283.955 710.099 283.716 710.368 283.546L723.984 295.398L724.714 296.034L724.852 296.155C725.148 296.412 725.598 296.412 725.894 296.155L726.033 296.034L726.763 295.398L740.379 283.546C740.648 283.716 740.871 283.955 741.02 284.241Z" fill="#829CF8"/>
<path d="M724.714 296.033L723.933 296.605L710.629 306.338C710.32 306.208 710.056 305.994 709.861 305.728L723.202 295.969L723.984 295.396L724.714 296.033Z" fill="#829CF8"/>
<path d="M740.884 305.728C740.687 305.994 740.423 306.206 740.117 306.338L726.813 296.605L726.031 296.033L726.762 295.396L727.543 295.969L740.884 305.728Z" fill="#829CF8"/>
<path d="M653.572 162.235H618.163C614.231 162.235 611.043 165.423 611.043 169.355V200.257C611.043 204.189 614.231 207.377 618.163 207.377H653.572C657.504 207.377 660.692 204.189 660.692 200.257V169.355C660.692 165.423 657.504 162.235 653.572 162.235Z" fill="#DEE4FC"/>
<path opacity="0.1" d="M649.928 172.76L635.867 167.116L621.807 172.76V188.265H621.931C622.119 196.139 635.867 202.495 635.867 202.495C635.867 202.495 649.616 196.139 649.804 188.265H649.928V172.76Z" fill="#829CF8"/>
<path d="M635.868 201.819C635.037 201.413 632.155 199.949 629.293 197.818C627.329 196.356 625.76 194.873 624.629 193.409C623.254 191.626 622.536 189.873 622.495 188.203L622.483 187.65H622.373V173.093L635.868 167.677L649.363 173.093V187.65H649.253L649.241 188.203C649.202 189.874 648.484 191.626 647.107 193.409C645.978 194.873 644.409 196.358 642.444 197.818C639.583 199.949 636.699 201.413 635.868 201.819Z" fill="white"/>
<path d="M645.286 182.733C645.304 177.683 641.224 173.574 636.174 173.557C631.124 173.539 627.016 177.619 626.999 182.669C626.981 187.719 631.061 191.827 636.111 191.844C641.161 191.862 645.269 187.782 645.286 182.733Z" fill="#CDD7FB"/>
<path d="M636.093 191.14C633.835 191.14 631.71 190.261 630.113 188.664C628.516 187.067 627.637 184.944 627.637 182.684C627.637 180.424 628.516 178.301 630.113 176.704C631.71 175.107 633.833 174.228 636.093 174.228C638.353 174.228 640.476 175.107 642.073 176.704C643.67 178.301 644.549 180.424 644.549 182.684C644.549 184.944 643.67 187.067 642.073 188.664C640.476 190.261 638.353 191.14 636.093 191.14Z" fill="white"/>
<path d="M637.66 178.981C637.258 178.547 636.703 178.277 636.09 178.277C634.864 178.277 633.871 179.353 633.871 180.679V181.594H634.359V180.679C634.359 179.646 635.137 178.804 636.09 178.804C637.044 178.804 637.822 179.644 637.822 180.679V181.594H638.309V180.679C638.309 180.016 638.061 179.415 637.659 178.981H637.66Z" fill="#ACBCF8"/>
<path d="M638.814 181.594H633.366C632.944 181.594 632.604 181.927 632.604 182.338V186.344C632.604 186.755 632.946 187.088 633.366 187.088H638.814C639.236 187.088 639.576 186.755 639.576 186.344V182.338C639.576 181.927 639.234 181.594 638.814 181.594ZM636.482 184.392V185.202C636.482 185.325 636.382 185.424 636.26 185.424H635.92C635.797 185.424 635.698 185.325 635.698 185.202V184.392C635.549 184.275 635.455 184.096 635.455 183.893C635.455 183.542 635.739 183.258 636.09 183.258C636.441 183.258 636.724 183.542 636.724 183.893C636.724 184.095 636.629 184.275 636.482 184.392Z" fill="#ACBCF8"/>
<path d="M175.629 319.888H140.221C136.288 319.888 133.102 316.699 133.102 312.768V281.868C133.102 277.935 136.29 274.748 140.221 274.748H175.629C179.562 274.748 182.749 277.937 182.749 281.868V312.768C182.749 316.701 179.56 319.888 175.629 319.888Z" fill="#DEE4FC"/>
<path d="M151.467 309.43L143.345 301.098C141.672 299.383 141.708 296.634 143.423 294.96C145.139 293.287 147.888 293.323 149.561 295.038L153.248 298.821L166.321 285.747C168.016 284.053 170.765 284.053 172.459 285.747C174.153 287.442 174.153 290.191 172.459 291.885L154.893 309.452C153.944 310.4 152.402 310.391 151.467 309.43Z" fill="white"/>
<path d="M70.703 420.384H35.2956C31.3626 420.384 28.1758 417.195 28.1758 413.264V382.364C28.1758 378.431 31.3643 375.244 35.2956 375.244H70.703C74.636 375.244 77.8228 378.433 77.8228 382.364V413.264C77.8228 417.197 74.6342 420.384 70.703 420.384Z" fill="#DEE4FC"/>
<path d="M52.9971 395.921C56.4407 395.921 59.2324 393.129 59.2324 389.686C59.2324 386.242 56.4407 383.45 52.9971 383.45C49.5534 383.45 46.7617 386.242 46.7617 389.686C46.7617 393.129 49.5534 395.921 52.9971 395.921Z" fill="white"/>
<path d="M49.1581 397.925H56.8379C61.1094 397.925 64.5798 401.393 64.5798 405.667V411.287C64.5798 411.78 64.181 412.179 63.6883 412.179H42.3095C41.8168 412.179 41.418 411.78 41.418 411.287V405.667C41.418 401.395 44.8866 397.925 49.1599 397.925H49.1581Z" fill="white"/>
<path d="M592.172 233.989H228.23V502.55H592.172V233.989Z" fill="#E3E9F7" stroke="black" stroke-width="0.0443103" stroke-miterlimit="10"/>
<path d="M592.168 205.563H228.348V234.051H592.168V205.563Z" fill="#ACBCF8" stroke="black" stroke-width="0.0443103" stroke-miterlimit="10"/>
<path d="M242.775 223.038C245.423 223.038 247.569 220.997 247.569 218.48C247.569 215.962 245.423 213.921 242.775 213.921C240.127 213.921 237.98 215.962 237.98 218.48C237.98 220.997 240.127 223.038 242.775 223.038Z" fill="#E3E9F7"/>
<path d="M256.759 223.038C259.407 223.038 261.554 220.997 261.554 218.48C261.554 215.962 259.407 213.921 256.759 213.921C254.111 213.921 251.965 215.962 251.965 218.48C251.965 220.997 254.111 223.038 256.759 223.038Z" fill="#E3E9F7"/>
<path d="M270.74 223.038C273.388 223.038 275.534 220.997 275.534 218.48C275.534 215.962 273.388 213.921 270.74 213.921C268.092 213.921 265.945 215.962 265.945 218.48C265.945 220.997 268.092 223.038 270.74 223.038Z" fill="#E3E9F7"/>
<path d="M582.784 247.325H237.621V489.217H582.784V247.325Z" fill="#F9FBFD"/>
<path d="M403.367 308.871C397.705 308.871 392.378 306.666 388.375 302.66C384.369 298.654 382.164 293.33 382.164 287.667C382.164 282.004 384.369 276.678 388.375 272.674C392.38 268.669 397.705 266.464 403.367 266.464C409.03 266.464 414.356 268.669 418.36 272.674C422.366 276.68 424.571 282.004 424.571 287.667C424.571 293.33 422.366 298.656 418.36 302.66C414.355 306.666 409.03 308.871 403.367 308.871Z" fill="#DEE4FC"/>
<path d="M417.25 301.548C424.916 293.882 424.916 281.452 417.25 273.786C409.583 266.119 397.153 266.119 389.487 273.786C381.82 281.452 381.82 293.882 389.487 301.548C397.153 309.215 409.583 309.215 417.25 301.548Z" fill="white"/>
<path d="M407.545 277.821C406.476 276.665 404.999 275.949 403.369 275.949C400.108 275.949 397.465 278.81 397.465 282.339V284.771H398.76V282.339C398.76 279.59 400.827 277.353 403.369 277.353C405.91 277.353 407.977 279.59 407.977 282.339V284.771H409.273V282.339C409.273 280.575 408.612 278.977 407.543 277.821H407.545Z" fill="#0F31AC"/>
<path d="M410.617 284.77H396.125C395.005 284.77 394.098 285.656 394.098 286.749V297.407C394.098 298.5 395.005 299.387 396.125 299.387H410.617C411.737 299.387 412.644 298.5 412.644 297.407V286.749C412.644 285.656 411.737 284.77 410.617 284.77ZM404.411 292.215V294.367C404.411 294.693 404.147 294.956 403.823 294.956H402.919C402.593 294.956 402.33 294.691 402.33 294.367V292.215C401.937 291.907 401.684 291.427 401.684 290.886C401.684 289.954 402.439 289.197 403.373 289.197C404.307 289.197 405.062 289.952 405.062 290.886C405.062 291.425 404.808 291.907 404.415 292.215H404.411Z" fill="#0F31AC"/>
<path opacity="0.15" d="M459.821 442.142H346.915C343.659 442.142 341.02 444.781 341.02 448.037V464.182C341.02 467.437 343.659 470.077 346.915 470.077H459.821C463.076 470.077 465.716 467.437 465.716 464.182V448.037C465.716 444.781 463.076 442.142 459.821 442.142Z" fill="black"/>
<path d="M459.821 440.454H346.915C343.659 440.454 341.02 443.093 341.02 446.349V461.932C341.02 465.188 343.659 467.827 346.915 467.827H459.821C463.076 467.827 465.716 465.188 465.716 461.932V446.349C465.716 443.093 463.076 440.454 459.821 440.454Z" fill="#0F31AC"/>
<path d="M351.867 455.18V458.577H349.988V449.721H352.569C353.772 449.721 354.662 449.94 355.24 450.378C355.818 450.816 356.107 451.482 356.107 452.374C356.107 452.895 355.963 453.358 355.676 453.764C355.389 454.169 354.983 454.488 354.458 454.717C355.791 456.708 356.66 457.994 357.064 458.576H354.979L352.865 455.178H351.865L351.867 455.18ZM351.867 453.654H352.473C353.067 453.654 353.505 453.554 353.788 453.358C354.07 453.159 354.212 452.849 354.212 452.425C354.212 452.002 354.067 451.706 353.779 451.529C353.491 451.351 353.044 451.263 352.438 451.263H351.869V453.655L351.867 453.654Z" fill="white"/>
<path d="M363.281 458.578H358.18V449.722H363.281V451.26H360.058V453.204H363.057V454.743H360.058V457.028H363.281V458.578Z" fill="white"/>
<path d="M370.359 456.119C370.359 456.918 370.072 457.549 369.496 458.008C368.919 458.469 368.118 458.699 367.094 458.699C366.149 458.699 365.313 458.522 364.586 458.166V456.422C365.183 456.687 365.69 456.875 366.103 456.985C366.516 457.095 366.895 457.148 367.239 457.148C367.65 457.148 367.968 457.07 368.187 456.913C368.407 456.755 368.517 456.521 368.517 456.211C368.517 456.037 368.469 455.883 368.372 455.748C368.274 455.613 368.133 455.482 367.945 455.358C367.757 455.232 367.374 455.034 366.796 454.759C366.256 454.504 365.85 454.261 365.578 454.025C365.307 453.791 365.091 453.518 364.93 453.208C364.768 452.898 364.687 452.535 364.687 452.118C364.687 451.335 364.953 450.718 365.485 450.271C366.016 449.823 366.75 449.6 367.686 449.6C368.147 449.6 368.586 449.655 369.003 449.763C369.421 449.873 369.859 450.025 370.314 450.224L369.708 451.684C369.235 451.491 368.845 451.354 368.537 451.278C368.228 451.202 367.923 451.163 367.626 451.163C367.269 451.163 366.998 451.246 366.809 451.411C366.619 451.576 366.523 451.792 366.523 452.06C366.523 452.225 366.562 452.37 366.638 452.492C366.715 452.616 366.837 452.735 367.005 452.85C367.174 452.965 367.569 453.173 368.196 453.471C369.024 453.866 369.591 454.263 369.898 454.662C370.204 455.059 370.359 455.548 370.359 456.124V456.119Z" fill="white"/>
<path d="M377.062 458.578H371.961V449.722H377.062V451.26H373.84V453.204H376.839V454.743H373.84V457.028H377.062V458.578Z" fill="white"/>
<path d="M382.327 458.578H380.448V451.285H378.043V449.722H384.73V451.285H382.325V458.578H382.327Z" fill="white"/>
<path d="M395.437 452.484C395.437 453.437 395.139 454.166 394.543 454.671C393.948 455.176 393.1 455.428 392.002 455.428H391.195V458.577H389.316V449.721H392.145C393.219 449.721 394.036 449.951 394.596 450.414C395.157 450.876 395.435 451.566 395.435 452.482L395.437 452.484ZM391.197 453.889H391.815C392.393 453.889 392.826 453.776 393.111 453.547C393.398 453.319 393.542 452.987 393.542 452.551C393.542 452.115 393.421 451.786 393.182 451.576C392.941 451.367 392.565 451.261 392.053 451.261H391.199V453.889H391.197Z" fill="white"/>
<path d="M402.533 458.579L401.891 456.471H398.662L398.02 458.579H395.996L399.123 449.685H401.418L404.557 458.579H402.533ZM401.443 454.895C400.849 452.985 400.514 451.905 400.44 451.654C400.365 451.404 400.312 451.205 400.278 451.06C400.145 451.578 399.762 452.855 399.133 454.895H401.441H401.443Z" fill="white"/>
<path d="M410.898 456.119C410.898 456.918 410.611 457.549 410.035 458.008C409.459 458.469 408.657 458.699 407.633 458.699C406.688 458.699 405.852 458.522 405.125 458.166V456.422C405.722 456.687 406.229 456.875 406.642 456.985C407.055 457.095 407.434 457.148 407.778 457.148C408.189 457.148 408.507 457.07 408.727 456.913C408.946 456.755 409.056 456.521 409.056 456.211C409.056 456.037 409.008 455.883 408.911 455.748C408.813 455.613 408.672 455.482 408.484 455.358C408.296 455.232 407.913 455.034 407.335 454.759C406.795 454.504 406.389 454.261 406.118 454.025C405.846 453.791 405.63 453.518 405.469 453.208C405.308 452.898 405.226 452.535 405.226 452.118C405.226 451.335 405.492 450.718 406.024 450.271C406.555 449.823 407.289 449.6 408.225 449.6C408.686 449.6 409.125 449.655 409.542 449.763C409.96 449.873 410.398 450.025 410.853 450.224L410.247 451.684C409.774 451.491 409.384 451.354 409.076 451.278C408.767 451.202 408.462 451.163 408.165 451.163C407.808 451.163 407.537 451.246 407.348 451.411C407.158 451.576 407.062 451.792 407.062 452.06C407.062 452.225 407.101 452.37 407.177 452.492C407.254 452.616 407.376 452.735 407.544 452.85C407.713 452.965 408.108 453.173 408.735 453.471C409.563 453.866 410.13 454.263 410.437 454.662C410.744 455.059 410.898 455.548 410.898 456.124V456.119Z" fill="white"/>
<path d="M417.73 456.119C417.73 456.918 417.443 457.549 416.867 458.008C416.291 458.469 415.489 458.699 414.465 458.699C413.52 458.699 412.684 458.522 411.957 458.166V456.422C412.554 456.687 413.061 456.875 413.474 456.985C413.887 457.095 414.266 457.148 414.61 457.148C415.022 457.148 415.339 457.07 415.559 456.913C415.778 456.755 415.888 456.521 415.888 456.211C415.888 456.037 415.84 455.883 415.743 455.748C415.645 455.613 415.504 455.482 415.316 455.358C415.128 455.232 414.745 455.034 414.167 454.759C413.627 454.504 413.221 454.261 412.95 454.025C412.678 453.791 412.462 453.518 412.301 453.208C412.14 452.898 412.058 452.535 412.058 452.118C412.058 451.335 412.324 450.718 412.856 450.271C413.387 449.823 414.121 449.6 415.057 449.6C415.518 449.6 415.957 449.655 416.374 449.763C416.792 449.873 417.23 450.025 417.685 450.224L417.079 451.684C416.606 451.491 416.216 451.354 415.908 451.278C415.599 451.202 415.294 451.163 414.997 451.163C414.64 451.163 414.369 451.246 414.18 451.411C413.99 451.576 413.894 451.792 413.894 452.06C413.894 452.225 413.933 452.37 414.009 452.492C414.086 452.616 414.208 452.735 414.376 452.85C414.545 452.965 414.94 453.173 415.567 453.471C416.395 453.866 416.962 454.263 417.269 454.662C417.576 455.059 417.73 455.548 417.73 456.124V456.119Z" fill="white"/>
<path d="M427.964 458.578H425.825L424.625 453.926C424.58 453.761 424.504 453.417 424.398 452.9C424.291 452.38 424.229 452.033 424.213 451.854C424.189 452.072 424.128 452.423 424.031 452.905C423.933 453.387 423.859 453.733 423.808 453.938L422.615 458.578H420.482L418.223 449.722H420.07L421.202 454.557C421.401 455.45 421.542 456.223 421.633 456.877C421.658 456.646 421.713 456.29 421.799 455.808C421.886 455.326 421.968 454.95 422.044 454.684L423.334 449.723H425.108L426.399 454.684C426.456 454.906 426.526 455.246 426.611 455.702C426.697 456.159 426.76 456.551 426.805 456.877C426.845 456.561 426.909 456.17 426.998 455.698C427.086 455.229 427.168 454.847 427.241 454.557L428.368 449.722H430.215L427.962 458.578H427.964Z" fill="white"/>
<path d="M439.371 454.139C439.371 455.605 439.007 456.732 438.281 457.519C437.554 458.306 436.512 458.701 435.154 458.701C433.796 458.701 432.754 458.308 432.028 457.519C431.301 456.732 430.938 455.601 430.938 454.127C430.938 452.652 431.303 451.526 432.031 450.748C432.76 449.97 433.805 449.582 435.166 449.582C436.528 449.582 437.568 449.974 438.289 450.757C439.011 451.541 439.371 452.668 439.371 454.137V454.139ZM432.907 454.139C432.907 455.128 433.095 455.874 433.47 456.374C433.846 456.876 434.408 457.125 435.154 457.125C436.652 457.125 437.401 456.129 437.401 454.139C437.401 452.148 436.657 451.147 435.166 451.147C434.419 451.147 433.857 451.399 433.476 451.9C433.096 452.404 432.907 453.15 432.907 454.139Z" fill="white"/>
<path d="M443.086 455.18V458.577H441.207V449.721H443.788C444.991 449.721 445.881 449.94 446.459 450.378C447.036 450.816 447.325 451.482 447.325 452.374C447.325 452.895 447.182 453.358 446.895 453.764C446.608 454.169 446.202 454.488 445.677 454.717C447.01 456.708 447.878 457.994 448.282 458.576H446.198L444.084 455.178H443.084L443.086 455.18ZM443.086 453.654H443.692C444.286 453.654 444.723 453.554 445.007 453.358C445.289 453.159 445.431 452.849 445.431 452.425C445.431 452.002 445.285 451.706 444.998 451.529C444.709 451.351 444.263 451.263 443.656 451.263H443.088V453.655L443.086 453.654Z" fill="white"/>
<path d="M456.743 454.066C456.743 455.525 456.328 456.641 455.499 457.416C454.669 458.192 453.471 458.578 451.902 458.578H449.395V449.722H452.175C453.622 449.722 454.744 450.103 455.543 450.867C456.342 451.631 456.743 452.696 456.743 454.066ZM454.793 454.114C454.793 452.212 453.953 451.26 452.273 451.26H451.273V457.028H452.08C453.889 457.028 454.793 456.056 454.793 454.114Z" fill="white"/>
<path d="M316.042 365.759C316.042 366.303 315.872 366.72 315.532 367.009C315.191 367.298 314.707 367.441 314.08 367.441H313.619V369.242H312.547V364.182H314.163C314.777 364.182 315.244 364.315 315.564 364.579C315.883 364.843 316.044 365.236 316.044 365.761L316.042 365.759ZM313.617 366.562H313.97C314.3 366.562 314.546 366.496 314.711 366.367C314.874 366.238 314.957 366.046 314.957 365.798C314.957 365.55 314.888 365.36 314.752 365.242C314.614 365.121 314.399 365.061 314.107 365.061H313.619V366.564L313.617 366.562Z" fill="#ACBCF8"/>
<path d="M320.094 369.243L319.727 368.037H317.882L317.515 369.243H316.359L318.146 364.161H319.458L321.251 369.243H320.096H320.094ZM319.47 367.139C319.131 366.047 318.94 365.43 318.897 365.287C318.855 365.143 318.825 365.03 318.805 364.948C318.729 365.244 318.511 365.974 318.151 367.139H319.47Z" fill="#ACBCF8"/>
<path d="M324.877 367.837C324.877 368.294 324.712 368.654 324.384 368.916C324.054 369.178 323.597 369.311 323.012 369.311C322.471 369.311 321.995 369.21 321.578 369.007V368.01C321.92 368.163 322.209 368.269 322.445 368.333C322.681 368.395 322.897 368.427 323.094 368.427C323.329 368.427 323.51 368.383 323.636 368.292C323.762 368.202 323.824 368.069 323.824 367.89C323.824 367.791 323.795 367.702 323.74 367.626C323.686 367.548 323.604 367.473 323.496 367.403C323.388 367.332 323.17 367.216 322.84 367.06C322.53 366.915 322.299 366.775 322.144 366.642C321.989 366.509 321.865 366.353 321.773 366.174C321.681 365.997 321.635 365.79 321.635 365.55C321.635 365.102 321.787 364.751 322.09 364.494C322.393 364.237 322.813 364.109 323.349 364.109C323.611 364.109 323.863 364.141 324.102 364.203C324.341 364.265 324.591 364.354 324.852 364.466L324.506 365.3C324.237 365.191 324.013 365.113 323.836 365.068C323.659 365.024 323.485 365.003 323.315 365.003C323.111 365.003 322.955 365.051 322.847 365.144C322.739 365.24 322.684 365.362 322.684 365.515C322.684 365.611 322.705 365.692 322.75 365.763C322.794 365.834 322.863 365.901 322.959 365.967C323.055 366.032 323.281 366.151 323.639 366.321C324.113 366.548 324.437 366.775 324.612 367.002C324.788 367.229 324.875 367.509 324.875 367.839L324.877 367.837Z" fill="#ACBCF8"/>
<path d="M328.779 367.837C328.779 368.294 328.614 368.654 328.286 368.916C327.957 369.178 327.499 369.311 326.914 369.311C326.374 369.311 325.897 369.21 325.48 369.007V368.01C325.823 368.163 326.111 368.269 326.347 368.333C326.583 368.395 326.799 368.427 326.996 368.427C327.232 368.427 327.412 368.383 327.538 368.292C327.664 368.202 327.726 368.069 327.726 367.89C327.726 367.791 327.698 367.702 327.643 367.626C327.588 367.548 327.506 367.473 327.398 367.403C327.29 367.332 327.072 367.216 326.742 367.06C326.432 366.915 326.202 366.775 326.046 366.642C325.892 366.509 325.768 366.353 325.675 366.174C325.583 365.997 325.537 365.79 325.537 365.55C325.537 365.102 325.69 364.751 325.993 364.494C326.296 364.237 326.716 364.109 327.251 364.109C327.513 364.109 327.765 364.141 328.004 364.203C328.244 364.265 328.494 364.354 328.754 364.466L328.408 365.3C328.139 365.191 327.916 365.113 327.739 365.068C327.561 365.024 327.388 365.003 327.217 365.003C327.014 365.003 326.858 365.051 326.75 365.144C326.641 365.24 326.586 365.362 326.586 365.515C326.586 365.611 326.608 365.692 326.652 365.763C326.696 365.834 326.765 365.901 326.861 365.967C326.957 366.032 327.184 366.151 327.542 366.321C328.015 366.548 328.339 366.775 328.515 367.002C328.69 367.229 328.777 367.509 328.777 367.839L328.779 367.837Z" fill="#ACBCF8"/>
<path d="M334.626 369.242H333.405L332.719 366.583C332.694 366.489 332.649 366.293 332.589 365.997C332.527 365.701 332.493 365.502 332.483 365.399C332.469 365.523 332.435 365.724 332.378 366C332.323 366.277 332.281 366.473 332.251 366.59L331.568 369.242H330.351L329.059 364.182H330.115L330.762 366.945C330.875 367.455 330.957 367.897 331.008 368.271C331.022 368.139 331.054 367.936 331.104 367.659C331.154 367.384 331.2 367.17 331.244 367.017L331.981 364.182H332.995L333.732 367.017C333.764 367.145 333.805 367.338 333.853 367.599C333.901 367.859 333.938 368.083 333.963 368.271C333.986 368.09 334.023 367.866 334.073 367.597C334.124 367.328 334.17 367.111 334.211 366.945L334.854 364.182H335.911L334.622 369.242H334.626Z" fill="#ACBCF8"/>
<path d="M341.145 366.704C341.145 367.543 340.938 368.186 340.521 368.636C340.107 369.086 339.511 369.311 338.735 369.311C337.958 369.311 337.365 369.086 336.948 368.636C336.533 368.186 336.324 367.541 336.324 366.697C336.324 365.854 336.532 365.212 336.95 364.767C337.366 364.322 337.964 364.101 338.742 364.101C339.52 364.101 340.114 364.324 340.527 364.772C340.938 365.221 341.145 365.864 341.145 366.704ZM337.451 366.704C337.451 367.27 337.56 367.695 337.774 367.982C337.988 368.269 338.309 368.411 338.736 368.411C339.593 368.411 340.021 367.842 340.021 366.704C340.021 365.566 339.596 364.994 338.744 364.994C338.316 364.994 337.994 365.137 337.778 365.425C337.561 365.712 337.451 366.139 337.451 366.704Z" fill="#ACBCF8"/>
<path d="M343.268 367.299V369.242H342.195V364.182H343.67C344.358 364.182 344.866 364.308 345.196 364.557C345.526 364.807 345.69 365.188 345.69 365.699C345.69 365.997 345.609 366.261 345.444 366.493C345.281 366.725 345.049 366.906 344.748 367.039C345.51 368.177 346.006 368.912 346.236 369.244H345.045L343.837 367.301H343.266L343.268 367.299ZM343.268 366.427H343.613C343.952 366.427 344.203 366.371 344.365 366.257C344.526 366.144 344.608 365.966 344.608 365.724C344.608 365.481 344.524 365.312 344.359 365.211C344.195 365.11 343.939 365.059 343.592 365.059H343.266V366.426L343.268 366.427Z" fill="#ACBCF8"/>
<path d="M351.074 366.663C351.074 367.496 350.836 368.134 350.363 368.577C349.89 369.02 349.204 369.242 348.309 369.242H346.875V364.182H348.463C349.289 364.182 349.931 364.4 350.388 364.836C350.845 365.272 351.074 365.881 351.074 366.663ZM349.959 366.691C349.959 365.605 349.479 365.061 348.52 365.061H347.949V368.356H348.41C349.443 368.356 349.961 367.801 349.961 366.691H349.959Z" fill="#ACBCF8"/>
<path d="M314.918 406.745C314.514 406.745 314.202 406.897 313.981 407.2C313.759 407.503 313.649 407.927 313.649 408.469C313.649 409.598 314.073 410.162 314.92 410.162C315.275 410.162 315.705 410.073 316.212 409.896V410.797C315.798 410.97 315.333 411.055 314.821 411.055C314.085 411.055 313.522 410.832 313.132 410.385C312.742 409.939 312.547 409.299 312.547 408.462C312.547 407.936 312.643 407.475 312.834 407.08C313.025 406.685 313.3 406.38 313.66 406.169C314.018 405.958 314.44 405.852 314.922 405.852C315.404 405.852 315.907 405.97 316.404 406.208L316.058 407.08C315.868 406.989 315.679 406.911 315.487 406.844C315.296 406.777 315.108 406.743 314.924 406.743L314.918 406.745Z" fill="#ACBCF8"/>
<path d="M321.88 408.447C321.88 409.286 321.672 409.929 321.256 410.379C320.841 410.83 320.245 411.055 319.469 411.055C318.693 411.055 318.099 410.83 317.682 410.379C317.268 409.929 317.059 409.284 317.059 408.44C317.059 407.597 317.266 406.955 317.684 406.51C318.101 406.065 318.698 405.844 319.476 405.844C320.254 405.844 320.848 406.067 321.261 406.516C321.672 406.964 321.88 407.607 321.88 408.447ZM318.186 408.447C318.186 409.013 318.294 409.438 318.508 409.725C318.723 410.012 319.044 410.154 319.471 410.154C320.327 410.154 320.756 409.585 320.756 408.447C320.756 407.31 320.33 406.737 319.478 406.737C319.051 406.737 318.728 406.881 318.512 407.168C318.296 407.455 318.186 407.882 318.186 408.447Z" fill="#ACBCF8"/>
<path d="M327.421 410.984H326.056L323.855 407.156H323.823C323.867 407.833 323.889 408.315 323.889 408.602V410.984H322.93V405.924H324.284L326.482 409.715H326.506C326.471 409.057 326.455 408.593 326.455 408.32V405.924H327.421V410.984Z" fill="#ACBCF8"/>
<path d="M329.748 410.984H328.691V405.924H331.593V406.803H329.748V408.107H331.465V408.983H329.748V410.984Z" fill="#ACBCF8"/>
<path d="M332.586 410.984V405.924H333.658V410.984H332.586Z" fill="#ACBCF8"/>
<path d="M336.002 409.043V410.986H334.93V405.926H336.404C337.092 405.926 337.601 406.052 337.93 406.302C338.26 406.551 338.425 406.933 338.425 407.443C338.425 407.741 338.343 408.005 338.179 408.237C338.015 408.469 337.783 408.65 337.482 408.783C338.244 409.921 338.74 410.656 338.971 410.988H337.78L336.571 409.045H336L336.002 409.043ZM336.002 408.171H336.348C336.686 408.171 336.938 408.115 337.099 408.001C337.26 407.888 337.342 407.711 337.342 407.468C337.342 407.225 337.259 407.057 337.094 406.956C336.929 406.855 336.674 406.803 336.326 406.803H336V408.17L336.002 408.171Z" fill="#ACBCF8"/>
<path d="M341.752 410.984L340.535 407.014H340.503C340.547 407.822 340.568 408.361 340.568 408.63V410.984H339.609V405.924H341.07L342.268 409.795H342.289L343.56 405.924H345.021V410.984H344.021V408.588C344.021 408.474 344.021 408.345 344.026 408.196C344.03 408.049 344.046 407.656 344.072 407.019H344.04L342.736 410.982H341.752V410.984Z" fill="#ACBCF8"/>
<path d="M351.636 407.503C351.636 408.047 351.466 408.464 351.125 408.753C350.785 409.042 350.301 409.185 349.674 409.185H349.213V410.986H348.141V405.926H349.757C350.37 405.926 350.838 406.059 351.157 406.323C351.476 406.587 351.636 406.98 351.636 407.505V407.503ZM349.211 408.306H349.564C349.894 408.306 350.14 408.241 350.305 408.111C350.468 407.982 350.551 407.79 350.551 407.542C350.551 407.294 350.482 407.104 350.345 406.986C350.209 406.865 349.993 406.805 349.7 406.805H349.213V408.308L349.211 408.306Z" fill="#ACBCF8"/>
<path d="M355.688 410.984L355.321 409.779H353.476L353.109 410.984H351.953L353.74 405.902H355.051L356.845 410.984H355.689H355.688ZM355.064 408.88C354.725 407.788 354.534 407.171 354.491 407.028C354.449 406.884 354.419 406.771 354.399 406.689C354.323 406.985 354.105 407.716 353.745 408.88H355.064Z" fill="#ACBCF8"/>
<path d="M360.466 409.579C360.466 410.036 360.302 410.396 359.974 410.658C359.646 410.921 359.187 411.054 358.602 411.054C358.061 411.054 357.584 410.953 357.168 410.749V409.753C357.51 409.905 357.799 410.011 358.035 410.075C358.27 410.137 358.488 410.169 358.683 410.169C358.919 410.169 359.1 410.125 359.226 410.034C359.352 409.944 359.414 409.811 359.414 409.632C359.414 409.533 359.385 409.444 359.33 409.368C359.275 409.29 359.194 409.216 359.086 409.145C358.978 409.074 358.76 408.959 358.43 408.803C358.12 408.657 357.889 408.517 357.733 408.384C357.579 408.251 357.455 408.095 357.363 407.916C357.271 407.739 357.225 407.532 357.225 407.293C357.225 406.844 357.377 406.493 357.68 406.236C357.983 405.979 358.403 405.852 358.939 405.852C359.201 405.852 359.453 405.883 359.692 405.946C359.931 406.008 360.181 406.096 360.442 406.208L360.096 407.043C359.827 406.933 359.603 406.855 359.426 406.81C359.249 406.766 359.075 406.745 358.905 406.745C358.701 406.745 358.547 406.793 358.437 406.887C358.329 406.982 358.274 407.105 358.274 407.257C358.274 407.353 358.295 407.434 358.34 407.505C358.384 407.576 358.453 407.643 358.549 407.709C358.644 407.775 358.871 407.893 359.229 408.064C359.703 408.29 360.027 408.517 360.202 408.744C360.378 408.971 360.465 409.251 360.465 409.581L360.466 409.579Z" fill="#ACBCF8"/>
<path d="M364.373 409.579C364.373 410.036 364.208 410.396 363.88 410.658C363.55 410.921 363.093 411.054 362.508 411.054C361.968 411.054 361.491 410.953 361.074 410.749V409.753C361.416 409.905 361.705 410.011 361.941 410.075C362.177 410.137 362.395 410.169 362.59 410.169C362.825 410.169 363.006 410.125 363.132 410.034C363.258 409.944 363.32 409.811 363.32 409.632C363.32 409.533 363.291 409.444 363.237 409.368C363.182 409.29 363.1 409.216 362.992 409.145C362.884 409.074 362.666 408.959 362.336 408.803C362.026 408.657 361.796 408.517 361.64 408.384C361.485 408.251 361.361 408.095 361.269 407.916C361.177 407.739 361.131 407.532 361.131 407.293C361.131 406.844 361.283 406.493 361.586 406.236C361.89 405.979 362.31 405.852 362.845 405.852C363.107 405.852 363.359 405.883 363.598 405.946C363.837 406.008 364.087 406.096 364.348 406.208L364.002 407.043C363.733 406.933 363.51 406.855 363.332 406.81C363.155 406.766 362.981 406.745 362.811 406.745C362.607 406.745 362.453 406.793 362.343 406.887C362.235 406.982 362.18 407.105 362.18 407.257C362.18 407.353 362.201 407.434 362.246 407.505C362.29 407.576 362.359 407.643 362.455 407.709C362.551 407.775 362.778 407.893 363.136 408.064C363.609 408.29 363.933 408.517 364.109 408.744C364.284 408.971 364.371 409.251 364.371 409.581L364.373 409.579Z" fill="#ACBCF8"/>
<path d="M370.22 410.984H368.998L368.312 408.325C368.288 408.232 368.243 408.035 368.183 407.739C368.121 407.443 368.087 407.244 368.077 407.141C368.062 407.266 368.029 407.466 367.972 407.742C367.917 408.019 367.875 408.216 367.844 408.333L367.162 410.984H365.944L364.652 405.924H365.709L366.356 408.687C366.469 409.197 366.551 409.639 366.602 410.013C366.616 409.882 366.648 409.678 366.698 409.401C366.747 409.127 366.793 408.912 366.838 408.76L367.575 405.924H368.589L369.326 408.76C369.358 408.887 369.399 409.08 369.447 409.341C369.495 409.602 369.532 409.825 369.557 410.013C369.58 409.832 369.617 409.609 369.666 409.339C369.718 409.07 369.764 408.854 369.805 408.687L370.448 405.924H371.505L370.216 410.984H370.22Z" fill="#ACBCF8"/>
<path d="M376.739 408.447C376.739 409.286 376.532 409.929 376.115 410.379C375.7 410.83 375.105 411.055 374.328 411.055C373.552 411.055 372.958 410.83 372.542 410.379C372.127 409.929 371.918 409.284 371.918 408.44C371.918 407.597 372.125 406.955 372.544 406.51C372.96 406.065 373.557 405.844 374.336 405.844C375.114 405.844 375.707 406.067 376.12 406.516C376.532 406.964 376.739 407.607 376.739 408.447ZM373.045 408.447C373.045 409.013 373.153 409.438 373.368 409.725C373.582 410.012 373.903 410.154 374.33 410.154C375.186 410.154 375.615 409.585 375.615 408.447C375.615 407.31 375.19 406.737 374.337 406.737C373.91 406.737 373.588 406.881 373.371 407.168C373.155 407.455 373.045 407.882 373.045 408.447Z" fill="#ACBCF8"/>
<path d="M378.861 409.043V410.986H377.789V405.926H379.264C379.951 405.926 380.46 406.052 380.79 406.302C381.119 406.551 381.284 406.933 381.284 407.443C381.284 407.741 381.203 408.005 381.038 408.237C380.875 408.469 380.643 408.65 380.341 408.783C381.103 409.921 381.6 410.656 381.83 410.988H380.639L379.43 409.045H378.86L378.861 409.043ZM378.861 408.171H379.207C379.546 408.171 379.797 408.115 379.958 408.001C380.12 407.888 380.201 407.711 380.201 407.468C380.201 407.225 380.118 407.057 379.953 406.956C379.788 406.855 379.533 406.803 379.186 406.803H378.86V408.17L378.861 408.171Z" fill="#ACBCF8"/>
<path d="M386.668 408.405C386.668 409.238 386.43 409.876 385.957 410.319C385.484 410.763 384.798 410.984 383.903 410.984H382.469V405.924H384.057C384.883 405.924 385.524 406.142 385.982 406.578C386.439 407.014 386.668 407.624 386.668 408.405ZM385.553 408.434C385.553 407.347 385.072 406.803 384.114 406.803H383.543V410.098H384.004C385.037 410.098 385.555 409.543 385.555 408.434H385.553Z" fill="#ACBCF8"/>
<path d="M309.699 375.234H497.043" stroke="#829CF8" stroke-width="1.94965" stroke-miterlimit="10"/>
<path d="M309.699 416.089H497.043" stroke="#829CF8" stroke-width="1.94965" stroke-miterlimit="10"/>
<path d="M302.363 329.629V334.483H299.68V321.83H303.366C305.086 321.83 306.358 322.144 307.182 322.769C308.006 323.395 308.419 324.347 308.419 325.621C308.419 326.366 308.214 327.027 307.804 327.608C307.395 328.188 306.815 328.641 306.066 328.971C307.969 331.816 309.21 333.654 309.788 334.483H306.81L303.79 329.629H302.361H302.363ZM302.363 327.449H303.228C304.077 327.449 304.703 327.307 305.107 327.025C305.511 326.743 305.713 326.298 305.713 325.692C305.713 325.086 305.507 324.666 305.094 324.411C304.681 324.157 304.043 324.03 303.177 324.03H302.363V327.449Z" fill="#0F31AC"/>
<path d="M318.669 334.485H311.383V321.832H318.669V324.03H314.064V326.807H318.348V329.005H314.064V332.268H318.669V334.484V334.485Z" fill="#0F31AC"/>
<path d="M328.778 330.971C328.778 332.114 328.367 333.013 327.545 333.67C326.722 334.328 325.579 334.657 324.113 334.657C322.763 334.657 321.568 334.404 320.531 333.895V331.403C321.386 331.784 322.107 332.052 322.699 332.208C323.291 332.364 323.832 332.442 324.322 332.442C324.911 332.442 325.363 332.33 325.677 332.105C325.99 331.88 326.148 331.545 326.148 331.102C326.148 330.854 326.079 330.634 325.941 330.439C325.802 330.246 325.599 330.06 325.331 329.881C325.063 329.702 324.516 329.416 323.691 329.025C322.919 328.661 322.339 328.312 321.953 327.977C321.566 327.642 321.258 327.254 321.028 326.809C320.797 326.364 320.682 325.845 320.682 325.251C320.682 324.133 321.061 323.252 321.82 322.612C322.578 321.972 323.628 321.651 324.966 321.651C325.623 321.651 326.251 321.729 326.848 321.885C327.445 322.041 328.069 322.261 328.722 322.543L327.857 324.629C327.181 324.353 326.623 324.159 326.182 324.049C325.74 323.94 325.306 323.885 324.879 323.885C324.37 323.885 323.982 324.003 323.711 324.239C323.44 324.477 323.305 324.785 323.305 325.164C323.305 325.4 323.36 325.607 323.47 325.783C323.58 325.958 323.753 326.129 323.993 326.293C324.232 326.458 324.799 326.754 325.693 327.18C326.875 327.745 327.686 328.312 328.124 328.879C328.562 329.448 328.782 330.145 328.782 330.969L328.778 330.971Z" fill="#0F31AC"/>
<path d="M338.357 334.485H331.07V321.832H338.357V324.03H333.752V326.807H338.036V329.005H333.752V332.268H338.357V334.484V334.485Z" fill="#0F31AC"/>
<path d="M345.88 334.485H343.197V324.065H339.762V321.832H349.317V324.065H345.882V334.485H345.88Z" fill="#0F31AC"/>
<path d="M359.803 327.041L362.442 321.832H365.333L361.136 329.56V334.484H358.47V329.647L354.273 321.832H357.182L359.803 327.041Z" fill="#0F31AC"/>
<path d="M378.412 328.14C378.412 330.235 377.893 331.845 376.854 332.97C375.816 334.096 374.327 334.657 372.388 334.657C370.449 334.657 368.96 334.096 367.921 332.97C366.883 331.845 366.363 330.23 366.363 328.124C366.363 326.019 366.884 324.409 367.925 323.3C368.965 322.189 370.459 321.634 372.404 321.634C374.348 321.634 375.835 322.194 376.865 323.312C377.895 324.432 378.41 326.042 378.41 328.142L378.412 328.14ZM369.178 328.14C369.178 329.555 369.445 330.618 369.983 331.334C370.52 332.05 371.321 332.407 372.388 332.407C374.529 332.407 375.599 330.985 375.599 328.14C375.599 325.296 374.534 323.865 372.405 323.865C371.338 323.865 370.534 324.225 369.991 324.943C369.449 325.661 369.178 326.728 369.178 328.14Z" fill="#0F31AC"/>
<path d="M391.332 321.832V330.019C391.332 330.953 391.122 331.773 390.704 332.477C390.286 333.181 389.681 333.721 388.891 334.095C388.101 334.471 387.166 334.657 386.087 334.657C384.46 334.657 383.196 334.241 382.296 333.406C381.395 332.573 380.945 331.431 380.945 329.983V321.83H383.62V329.576C383.62 330.55 383.817 331.266 384.208 331.722C384.6 332.177 385.249 332.406 386.156 332.406C387.064 332.406 387.67 332.177 388.065 331.718C388.46 331.259 388.657 330.54 388.657 329.56V321.832H391.332Z" fill="#0F31AC"/>
<path d="M397.113 329.629V334.483H394.43V321.83H398.116C399.836 321.83 401.108 322.144 401.932 322.769C402.756 323.395 403.169 324.347 403.169 325.621C403.169 326.366 402.964 327.027 402.554 327.608C402.145 328.188 401.565 328.641 400.816 328.971C402.719 331.816 403.96 333.654 404.538 334.483H401.56L398.54 329.629H397.111H397.113ZM397.113 327.449H397.978C398.827 327.449 399.453 327.307 399.857 327.025C400.261 326.743 400.463 326.298 400.463 325.692C400.463 325.086 400.257 324.666 399.844 324.411C399.431 324.157 398.793 324.03 397.927 324.03H397.113V327.449Z" fill="#0F31AC"/>
<path d="M419.474 325.777C419.474 327.138 419.049 328.181 418.198 328.902C417.347 329.623 416.137 329.983 414.568 329.983H413.418V334.483H410.734V321.83H414.775C416.31 321.83 417.477 322.16 418.276 322.821C419.075 323.482 419.474 324.467 419.474 325.775V325.777ZM413.418 327.785H414.3C415.125 327.785 415.743 327.622 416.153 327.296C416.562 326.97 416.768 326.495 416.768 325.873C416.768 325.251 416.596 324.779 416.252 324.48C415.908 324.18 415.371 324.03 414.637 324.03H413.418V327.785Z" fill="#0F31AC"/>
<path d="M429.61 334.485L428.692 331.474H424.078L423.16 334.485H420.27L424.736 321.78H428.017L432.499 334.485H429.608H429.61ZM428.052 329.223C427.203 326.493 426.726 324.951 426.62 324.593C426.514 324.235 426.438 323.953 426.391 323.744C426.202 324.483 425.656 326.309 424.756 329.223H428.052Z" fill="#0F31AC"/>
<path d="M441.56 330.971C441.56 332.114 441.148 333.013 440.326 333.67C439.504 334.328 438.36 334.657 436.895 334.657C435.544 334.657 434.349 334.404 433.312 333.895V331.403C434.167 331.784 434.888 332.052 435.48 332.208C436.072 332.364 436.613 332.442 437.104 332.442C437.692 332.442 438.144 332.33 438.458 332.105C438.772 331.88 438.929 331.545 438.929 331.102C438.929 330.854 438.86 330.634 438.722 330.439C438.584 330.246 438.38 330.06 438.112 329.881C437.845 329.702 437.297 329.416 436.473 329.025C435.7 328.661 435.12 328.312 434.734 327.977C434.348 327.642 434.039 327.254 433.809 326.809C433.578 326.364 433.463 325.845 433.463 325.251C433.463 324.133 433.842 323.252 434.601 322.612C435.36 321.972 436.409 321.651 437.747 321.651C438.405 321.651 439.032 321.729 439.629 321.885C440.227 322.041 440.851 322.261 441.503 322.543L440.638 324.629C439.963 324.353 439.404 324.159 438.963 324.049C438.522 323.94 438.087 323.885 437.66 323.885C437.152 323.885 436.763 324.003 436.492 324.239C436.221 324.477 436.086 324.785 436.086 325.164C436.086 325.4 436.141 325.607 436.251 325.783C436.361 325.958 436.535 326.129 436.774 326.293C437.013 326.458 437.58 326.754 438.474 327.18C439.656 327.745 440.468 328.312 440.905 328.879C441.343 329.448 441.563 330.145 441.563 330.969L441.56 330.971Z" fill="#0F31AC"/>
<path d="M451.321 330.971C451.321 332.114 450.91 333.013 450.088 333.67C449.265 334.328 448.122 334.657 446.656 334.657C445.306 334.657 444.111 334.404 443.074 333.895V331.403C443.929 331.784 444.65 332.052 445.242 332.208C445.834 332.364 446.374 332.442 446.865 332.442C447.454 332.442 447.906 332.33 448.22 332.105C448.533 331.88 448.691 331.545 448.691 331.102C448.691 330.854 448.622 330.634 448.484 330.439C448.345 330.246 448.142 330.06 447.874 329.881C447.606 329.702 447.059 329.416 446.234 329.025C445.462 328.661 444.882 328.312 444.496 327.977C444.109 327.642 443.801 327.254 443.571 326.809C443.34 326.364 443.225 325.845 443.225 325.251C443.225 324.133 443.604 323.252 444.363 322.612C445.121 321.972 446.171 321.651 447.509 321.651C448.166 321.651 448.794 321.729 449.391 321.885C449.988 322.041 450.612 322.261 451.265 322.543L450.4 324.629C449.724 324.353 449.166 324.159 448.725 324.049C448.283 323.94 447.849 323.885 447.422 323.885C446.913 323.885 446.525 324.003 446.254 324.239C445.983 324.477 445.848 324.785 445.848 325.164C445.848 325.4 445.903 325.607 446.013 325.783C446.123 325.958 446.296 326.129 446.536 326.293C446.775 326.458 447.342 326.754 448.235 327.18C449.418 327.745 450.229 328.312 450.667 328.879C451.105 329.448 451.325 330.145 451.325 330.969L451.321 330.971Z" fill="#0F31AC"/>
<path d="M465.94 334.485H462.885L461.171 327.839C461.107 327.603 460.999 327.114 460.846 326.371C460.694 325.63 460.605 325.132 460.582 324.879C460.547 325.191 460.462 325.69 460.324 326.38C460.185 327.069 460.079 327.56 460.003 327.856L458.298 334.485H455.251L452.023 321.832H454.663L456.281 328.737C456.563 330.012 456.768 331.118 456.896 332.052C456.931 331.722 457.009 331.213 457.133 330.524C457.257 329.834 457.374 329.299 457.484 328.918L459.328 321.83H461.864L463.707 328.918C463.787 329.235 463.89 329.721 464.01 330.371C464.131 331.024 464.223 331.584 464.287 332.05C464.345 331.6 464.437 331.04 464.563 330.366C464.691 329.694 464.806 329.15 464.909 328.735L466.518 321.83H469.157L465.939 334.483L465.94 334.485Z" fill="#0F31AC"/>
<path d="M482.236 328.14C482.236 330.235 481.717 331.845 480.678 332.97C479.64 334.096 478.151 334.657 476.212 334.657C474.273 334.657 472.784 334.096 471.745 332.97C470.707 331.845 470.188 330.23 470.188 328.124C470.188 326.019 470.709 324.409 471.749 323.3C472.791 322.189 474.284 321.634 476.228 321.634C478.172 321.634 479.659 322.194 480.689 323.312C481.719 324.432 482.235 326.042 482.235 328.142L482.236 328.14ZM473.002 328.14C473.002 329.555 473.27 330.618 473.807 331.334C474.344 332.05 475.145 332.407 476.212 332.407C478.353 332.407 479.424 330.985 479.424 328.14C479.424 325.296 478.358 323.865 476.23 323.865C475.163 323.865 474.358 324.225 473.816 324.943C473.273 325.661 473.002 326.728 473.002 328.14Z" fill="#0F31AC"/>
<path d="M487.543 329.629V334.483H484.859V321.83H488.546C490.265 321.83 491.538 322.144 492.362 322.769C493.186 323.395 493.599 324.347 493.599 325.621C493.599 326.366 493.394 327.027 492.984 327.608C492.575 328.188 491.995 328.641 491.245 328.971C493.149 331.816 494.39 333.654 494.967 334.483H491.99L488.97 329.629H487.541H487.543ZM487.543 327.449H488.408C489.257 327.449 489.882 327.307 490.286 327.025C490.691 326.743 490.893 326.298 490.893 325.692C490.893 325.086 490.687 324.666 490.274 324.411C489.861 324.157 489.223 324.03 488.356 324.03H487.543V327.449Z" fill="#0F31AC"/>
<path d="M507.059 328.037C507.059 330.12 506.467 331.715 505.281 332.823C504.095 333.931 502.383 334.485 500.145 334.485H496.562V321.832H500.534C502.599 321.832 504.203 322.378 505.347 323.468C506.49 324.558 507.06 326.082 507.06 328.037H507.059ZM504.271 328.106C504.271 325.389 503.071 324.03 500.671 324.03H499.242V332.268H500.393C502.977 332.268 504.271 330.88 504.271 328.105V328.106Z" fill="#0F31AC"/>
<path d="M515.078 330.287V329.647C515.078 329.094 515.197 328.612 515.433 328.202C515.668 327.793 516.103 327.357 516.73 326.896C517.336 326.464 517.735 326.111 517.928 325.84C518.121 325.569 518.219 325.265 518.219 324.931C518.219 324.555 518.081 324.269 517.804 324.074C517.528 323.878 517.141 323.78 516.645 323.78C515.78 323.78 514.793 324.064 513.685 324.629L512.742 322.735C514.029 322.013 515.394 321.653 516.836 321.653C518.026 321.653 518.97 321.939 519.671 322.509C520.372 323.08 520.722 323.842 520.722 324.794C520.722 325.429 520.578 325.976 520.289 326.439C520 326.9 519.453 327.419 518.644 327.997C518.091 328.406 517.74 328.718 517.593 328.931C517.446 329.145 517.372 329.424 517.372 329.771V330.29H515.078V330.287ZM514.802 333.247C514.802 332.763 514.931 332.396 515.192 332.148C515.45 331.9 515.83 331.776 516.326 331.776C516.822 331.776 517.175 331.903 517.437 332.157C517.7 332.41 517.831 332.773 517.831 333.247C517.831 333.72 517.698 334.062 517.432 334.324C517.166 334.587 516.797 334.718 516.324 334.718C515.851 334.718 515.465 334.59 515.199 334.333C514.933 334.076 514.8 333.715 514.8 333.247H514.802Z" fill="#0F31AC"/>
<path opacity="0.1" d="M311.234 491.503C310.779 490.62 310.098 489.865 309.286 489.216C308.997 488.984 308.691 488.768 308.372 488.564L320.422 456.801H279.079C272.619 445.489 266.224 436.026 259.019 428.426C256.662 422.342 254.671 420.349 253.441 419.734L253.461 419.516L240.301 413.93C239.34 413.331 238.45 412.753 237.619 412.2C235.873 411.037 234.381 409.975 233.016 409.02C233.012 408.816 233.021 408.611 233.053 408.407L233.245 407.152C233.892 407.368 234.25 407.432 234.25 407.432C235.503 407.647 236.621 407.184 237.619 406.241C241.291 402.772 243.321 392.799 244.297 386.145C244.315 386.303 244.32 386.395 244.32 386.395C251.123 369.786 243.108 366.66 237.619 366.291C235.224 366.13 233.312 366.493 233.312 366.493C232.302 365.83 231.26 365.33 230.217 364.96C229.554 364.724 228.892 364.543 228.23 364.412V502.55H311.449L310.188 501.152L309.784 500.703C313.753 497.284 311.234 491.503 311.234 491.503Z" fill="black"/>
<path d="M296.682 566.04C296.682 566.04 296.43 568.039 295.447 570.953C292.632 579.291 283.823 595.117 257.762 592.951H153.284C140.694 592.951 129.507 588.195 120.824 580.273C120.379 579.87 119.941 579.455 119.51 579.034C107.343 567.134 100.514 548.798 102.367 528.814L105.7 492.841C106.102 488.517 106.775 484.274 107.706 480.135C107.711 480.11 107.718 480.082 107.722 480.057C107.77 479.841 107.821 479.621 107.874 479.405C107.967 478.999 108.064 478.595 108.165 478.191C112.965 458.652 123.477 441.488 137.763 428.466C155.52 412.284 179.106 402.498 204.807 402.498H206.236C207.005 402.498 207.741 402.505 208.444 402.523C218.62 402.753 222.402 404.646 227.464 408.122C230.346 410.096 233.639 412.585 238.762 415.568C253.581 424.203 264.318 438.258 275.319 457.668C278.382 463.075 281.47 468.898 284.67 475.135C285.034 475.844 305.236 507.217 296.682 566.042V566.04Z" fill="#ACBCF8"/>
<g opacity="0.1">
<path opacity="0.13" d="M217.833 378.3C217.762 378.606 217.681 378.837 217.594 378.972L217.833 378.3Z" fill="black"/>
</g>
<path opacity="0.1" d="M217.591 378.972C217.678 378.835 217.76 378.605 217.83 378.3L217.591 378.972ZM284.672 475.134C281.471 468.897 278.385 463.074 275.32 457.667H255.462L254.746 454.737L256.733 454.022C251.834 427.401 247.072 421.717 244.833 420.602L244.854 420.384L230.663 414.356L225.872 412.981L225.11 411.963C224.543 411.205 224.301 410.23 224.447 409.273L224.638 408.018C225.285 408.234 225.645 408.3 225.645 408.3C226.288 408.41 226.893 408.34 227.467 408.122C222.405 404.647 218.623 402.754 208.447 402.523C207.026 406.291 203.3 409.149 201.597 410.299L183.642 421.013C183.428 421.158 183.228 421.323 183.045 421.504C179.979 423.071 173.518 429.517 169.614 455.974L170.677 456.38L168.093 470.081C167.393 473.808 169.538 477.48 173.054 478.581L180.837 482.601L181.026 498.407C181.026 498.407 179.02 512.721 183.412 515.587C183.983 519.781 184.683 523.676 185.425 526.28C189.123 539.251 203.371 546.292 216.831 545.392C231.407 544.417 254.452 544.414 261.217 541.964C263.38 541.181 284.551 561.688 295.45 570.955C296.433 568.042 296.685 566.042 296.685 566.042C305.239 507.218 285.038 475.844 284.673 475.135L284.672 475.134Z" fill="black"/>
<path d="M203.603 517.327C207.297 530.301 221.549 537.339 235.008 536.441C249.585 535.466 266.664 531.499 273.427 529.051C302.739 518.44 295.485 500.067 295.485 500.067C292.53 496.196 287.631 493.562 282.755 492.375L236.637 490.897C236.058 490.757 235.459 490.75 234.877 490.875L200.907 484.989C199.083 485.388 201.12 508.603 203.605 517.329L203.603 517.327Z" fill="#040C2B"/>
<path d="M346.078 569.366L362.359 589.196L372.636 576.435L352.843 559.627L346.078 569.366Z" fill="#DB965F"/>
<path d="M365.272 594.679C365.272 594.679 362.849 597.024 357.659 590.851C357.659 590.851 348.857 582.183 354.058 579.325C354.058 579.325 362.64 581.168 362.792 572.067L363.203 568.196C363.203 568.196 378.494 564.241 381.269 561C381.574 560.645 381.9 560.31 382.267 560.019C384.525 558.228 391.252 553.703 392.732 561.98C392.732 561.98 396.087 570.5 365.273 594.679H365.272Z" fill="#040C2B"/>
<path d="M262.773 507.577C263.491 507.735 280.776 516.064 280.776 516.064L344.432 571.363C346.048 572.871 348.521 572.891 350.063 571.409L357.555 564.209C359.118 562.708 359.168 560.198 357.668 558.532L305.937 501.152L299.335 493.829C296.228 490.381 292.149 484.243 287.904 483.184L262.773 507.577Z" fill="#040C2B"/>
<path d="M205.078 409.986L205.153 424.116L225.567 427.948L237.425 421.721L232.295 414.878L229.459 411.096C228.892 410.337 228.651 409.362 228.797 408.405L231.271 392.184L211.383 383.005L213.059 395.896L213.334 398.012C213.935 404.876 205.078 409.986 205.078 409.986Z" fill="#C9885B"/>
<path opacity="0.15" d="M211.383 383.007L213.26 397.615C220.232 410.508 229.056 413.526 232.297 414.88L229.461 411.098C228.894 410.339 228.653 409.364 228.799 408.407L231.273 392.186L211.385 383.007H211.383Z" fill="black"/>
<path d="M240.801 379.813C240.801 379.813 238.4 408.87 229.993 407.432C229.993 407.432 220.612 405.756 210.855 390.589L208.527 384.443L215.433 376.619L240.799 379.813H240.801Z" fill="#DB965F"/>
<path d="M219.64 384.442C219.64 384.442 219.34 389.391 218.438 390.828H217.088C217.088 390.828 217.238 385.72 213.335 384.602C213.335 384.602 208.532 383.804 211.233 390.828L212.96 393.781L213.362 398.577C213.362 398.577 207.931 388.272 207.031 382.046C207.031 382.046 206.992 381.819 206.946 381.415C205.711 370.261 215.895 361.383 225.962 364.956C227.004 365.327 228.046 365.827 229.057 366.49C229.057 366.49 249.831 362.546 240.065 386.392C240.065 386.392 239.824 381.351 235.627 380.759C235.303 380.713 234.395 379.774 234.074 379.705C232.75 379.421 230.73 378.416 227.281 379.632C227.281 379.632 223.36 384.928 219.638 384.439L219.64 384.442Z" fill="black"/>
<path d="M189.779 525.411C193.473 538.385 207.725 545.423 221.184 544.524C235.76 543.55 252.839 539.583 259.603 537.135C288.915 526.524 281.661 508.151 281.661 508.151C278.706 504.28 273.807 501.646 268.931 500.459L222.813 498.981C222.233 498.841 221.634 498.834 221.053 498.959L187.083 493.073C185.259 493.472 187.296 516.687 189.781 525.413L189.779 525.411Z" fill="#040C2B"/>
<path d="M337.953 577.146L356.764 594.595L365.22 580.561L343.338 566.582L337.953 577.146Z" fill="#DB965F"/>
<path d="M360.387 599.633C360.387 599.633 358.305 602.284 352.326 596.868C352.326 596.868 342.434 589.47 347.2 585.934C347.2 585.934 355.953 586.6 354.873 577.561L354.758 573.669C354.758 573.669 369.373 567.685 371.686 564.098C371.94 563.704 372.218 563.329 372.542 562.992C374.538 560.911 380.589 555.519 383.175 563.52C383.175 563.52 387.65 571.508 360.387 599.631V599.633Z" fill="#040C2B"/>
<path d="M247.059 527.181C247.792 527.24 266.043 533.156 266.043 533.156L336.588 579.345C338.393 580.621 340.847 580.308 342.175 578.629L348.625 570.483C349.97 568.785 349.679 566.291 347.969 564.843L288.957 514.291L281.426 507.465C277.881 504.47 273.01 500.092 268.663 499.613L247.059 527.18V527.181Z" fill="#040C2B"/>
<path d="M239.702 443.842L234.305 470.096L242.814 479.244L261.649 464.304L259.097 453.873L256.045 441.397L249.684 442.349L246.573 442.814L239.702 443.842Z" fill="#DB965F"/>
<path d="M286.403 484.844C286.403 484.844 291.07 482.211 298.454 481.906C299.124 482.914 298.553 484.316 297.352 484.609L293.823 485.47C293.823 485.47 304.289 486.293 306.978 491.503C306.978 491.503 310.304 499.139 303.293 502.049C303.293 502.049 297.766 506.61 284.686 497.471L237.434 475.561L249.449 467.305L286.402 484.843L286.403 484.844Z" fill="#DB965F"/>
<path d="M245.701 458.676L250.065 457.111L259.095 453.873L261.084 453.159C256.121 426.191 251.3 420.708 249.097 419.694C248.303 419.329 247.849 419.543 247.849 419.543L246.571 442.813L245.699 458.674L245.701 458.676Z" fill="white"/>
<path opacity="0.15" d="M239.703 443.841L248.287 467.348L250.066 457.111L249.685 442.349L249.1 419.694C248.306 419.329 247.853 419.543 247.853 419.543L246.575 442.813L239.703 443.841Z" fill="black"/>
<path d="M187.995 420.147C186.873 420.906 186.168 422.172 186.099 423.556L185.021 444.725L184.807 448.944C184.801 449.048 184.8 449.155 184.801 449.259L185.379 497.538C185.379 497.538 182.017 521.503 193.504 513.631C213.247 500.103 237.086 499.773 247.135 497.391C249.195 496.903 250.581 494.911 250.379 492.738L247.616 463.176C247.598 462.988 247.593 462.801 247.598 462.611L248.904 422.693L249.209 419.517L235.016 413.49L230.227 412.113C230.227 412.113 228.761 417.255 226.425 419.848C224.489 421.996 220.911 421.459 218.311 420.209C212.061 417.209 209.107 414.384 207.765 412.143L205.95 409.43L187.995 420.144V420.147Z" fill="white"/>
<path opacity="0.15" d="M184.797 449.102L185.642 492.416L189.458 484.875L194.714 444.022L185.018 444.726L184.797 449.102Z" fill="black"/>
<path d="M177.406 477.712L212.515 495.849C216.053 497.676 220.112 498.176 224.009 497.357C228.621 496.389 231.209 497.394 233.694 499.452C236.218 501.54 240.383 500.386 240.289 497.112C240.211 494.388 238.375 491.155 238.375 491.155C234.897 486.299 225.608 485.764 225.608 485.764L218.261 486.139L187.634 467.83C187.437 467.767 187.329 467.552 187.391 467.348L192.177 451.696L177.033 444.876L172.445 469.211C171.745 472.939 173.889 476.611 177.406 477.71V477.712Z" fill="#DB965F"/>
<path d="M189.114 420.138C189.114 420.138 179.224 419.489 173.965 455.105L190.604 461.435C190.604 461.435 205.478 422.339 189.114 420.138Z" fill="white"/>
<path d="M242.169 498.97L216.223 498.85V502.21H240.471L242.169 498.97Z" fill="#0F31AC"/>
<path d="M256.517 456.801H316.167L299.556 500.588L240.281 502.21L256.517 456.801Z" fill="#0F31AC"/>
<path d="M300.247 498.771L298.235 502.094H240.473L241.513 498.771H300.247Z" fill="#0B2581"/>
<path d="M150.664 479.545C206.422 481.142 184.878 546.505 256.149 547.489C256.149 547.489 140.301 625.335 150.664 479.545Z" fill="#9CB1FE"/>
<path d="M655.82 555.248C653.369 538.22 637.579 526.404 620.551 528.855C608.215 530.631 598.614 539.408 595.192 550.583L553.407 556.597C552.152 556.778 551.271 557.864 551.438 559.023L551.798 561.519C551.943 562.531 551.174 563.477 550.078 563.635L544.772 564.399C543.677 564.557 542.672 563.864 542.526 562.853L541.998 559.185C541.924 558.672 541.417 558.323 540.862 558.403L538.811 558.699C538.257 558.779 537.868 559.257 537.941 559.769L538.161 561.295C538.306 562.308 537.537 563.254 536.443 563.412L531.137 564.176C530.041 564.333 529.036 563.64 528.891 562.628L528.666 561.065C528.595 560.574 528.108 560.237 527.576 560.315L525.444 560.622C524.912 560.698 524.538 561.159 524.609 561.65L525.142 565.356C525.288 566.368 524.519 567.315 523.425 567.472L518.118 568.236C517.023 568.394 516.018 567.701 515.873 566.691L515.513 564.19C515.346 563.032 514.198 562.242 512.947 562.421C505.86 563.44 500.545 569.402 501.25 575.982C501.988 582.86 508.725 587.626 516.073 586.568L597.749 574.814C603.845 585.785 616.266 592.414 629.426 590.519C646.453 588.068 658.27 572.279 655.819 555.25L655.82 555.248ZM628.887 559.124C628.178 554.204 631.593 549.642 636.514 548.935C641.434 548.226 645.996 551.641 646.703 556.561C647.412 561.482 643.997 566.044 639.077 566.751C634.156 567.458 629.594 564.044 628.887 559.124Z" fill="#0B2581"/>
<path d="M653.871 555.248C651.42 538.22 635.63 526.404 618.602 528.855C606.266 530.631 596.665 539.408 593.242 550.583L551.458 556.597C550.203 556.778 549.322 557.864 549.489 559.023L549.849 561.519C549.994 562.531 549.225 563.477 548.129 563.635L542.823 564.399C541.727 564.557 540.722 563.864 540.577 562.853L540.049 559.185C539.974 558.672 539.468 558.323 538.913 558.403L536.862 558.699C536.307 558.779 535.919 559.257 535.992 559.769L536.212 561.295C536.357 562.308 535.588 563.254 534.494 563.412L529.188 564.176C528.092 564.333 527.087 563.64 526.942 562.628L526.717 561.065C526.646 560.574 526.158 560.237 525.627 560.315L523.495 560.622C522.963 560.698 522.589 561.159 522.66 561.65L523.193 565.356C523.339 566.368 522.569 567.315 521.476 567.472L516.169 568.236C515.074 568.394 514.069 567.701 513.924 566.691L513.564 564.19C513.397 563.032 512.249 562.242 510.997 562.421C503.911 563.44 498.596 569.402 499.301 575.982C500.038 582.86 506.775 587.626 514.124 586.568L595.8 574.814C601.895 585.785 614.316 592.414 627.477 590.519C644.504 588.068 656.321 572.279 653.869 555.25L653.871 555.248ZM626.938 559.124C626.229 554.204 629.644 549.642 634.564 548.935C639.485 548.226 644.047 551.641 644.754 556.561C645.463 561.482 642.048 566.044 637.127 566.751C632.207 567.458 627.645 564.044 626.938 559.124Z" fill="#0F31AC"/>
</svg>
