<svg width="48" height="48" viewBox="0 0 48 48" fill="none" xmlns="http://www.w3.org/2000/svg">
<path d="M34 24C34 29.5228 29.5228 34 24 34C18.4772 34 14 29.5228 14 24C14 18.4772 18.4772 14 24 14" stroke="#F0B501" stroke-width="3" stroke-linecap="round"/>
<path d="M28 4.40008C26.7076 4.13772 25.3698 4 24 4C12.9543 4 4 12.9543 4 24C4 35.0456 12.9543 44 24 44C35.0456 44 44 35.0456 44 24C44 22.6302 43.8622 21.2924 43.6 20" stroke="#F0B501" stroke-width="3" stroke-linecap="round"/>
<path d="M24.0605 23.9248L33.1663 14.819M39.4807 8.68902L38.3743 4.71474C38.1705 4.06 37.3827 3.79908 36.8517 4.23302C33.9795 6.58014 30.8507 9.7416 33.4059 14.7282C38.5541 17.1289 41.4931 13.8915 43.7465 11.1704C44.1949 10.629 43.9245 9.81512 43.2493 9.61988L39.4807 8.68902Z" stroke="#F0B501" stroke-width="3" stroke-linecap="round" stroke-linejoin="round"/>
</svg>
